<?xml version="1.0" encoding="UTF-8" standalone="no"?>
<svg
   xmlns:dc="http://purl.org/dc/elements/1.1/"
   xmlns:cc="http://creativecommons.org/ns#"
   xmlns:rdf="http://www.w3.org/1999/02/22-rdf-syntax-ns#"
   xmlns:svg="http://www.w3.org/2000/svg"
   xmlns="http://www.w3.org/2000/svg"
   xmlns:sodipodi="http://sodipodi.sourceforge.net/DTD/sodipodi-0.dtd"
   xmlns:inkscape="http://www.inkscape.org/namespaces/inkscape"
   width="128"
   height="128"
   viewBox="0 0 33.866667 33.866667"
   version="1.1"
   id="svg8"
   inkscape:version="1.0.2-2 (e86c870879, 2021-01-15)"
   sodipodi:docname="26S.svg">
  <defs
     id="defs2" />
  <sodipodi:namedview
     id="base"
     pagecolor="#ffffff"
     bordercolor="#666666"
     borderopacity="1.0"
     inkscape:pageopacity="0.0"
     inkscape:pageshadow="2"
     inkscape:zoom="2.3583309"
     inkscape:cx="71.000079"
     inkscape:cy="78.841044"
     inkscape:document-units="px"
     inkscape:current-layer="layer1"
     showgrid="true"
     inkscape:window-width="1920"
     inkscape:window-height="1027"
     inkscape:window-x="-8"
     inkscape:window-y="-8"
     inkscape:window-maximized="1"
     inkscape:document-rotation="0"
     inkscape:snap-text-baseline="true"
     fit-margin-top="0"
     fit-margin-left="0"
     fit-margin-right="0"
     fit-margin-bottom="0"
     borderlayer="true"
     units="px">
    <inkscape:grid
       type="xygrid"
       id="grid815"
       spacingx="0.042333334"
       spacingy="0.042333333"
       originx="0"
       originy="0" />
  </sodipodi:namedview>
  <metadata
     id="metadata5">
    <rdf:RDF>
      <cc:Work
         rdf:about="">
        <dc:format>image/svg+xml</dc:format>
        <dc:type
           rdf:resource="http://purl.org/dc/dcmitype/StillImage" />
        <dc:title></dc:title>
      </cc:Work>
    </rdf:RDF>
  </metadata>
  <g
     inkscape:label="レイヤー 1"
     inkscape:groupmode="layer"
     id="layer1"
     transform="translate(-17.832917,-215.05334)">
    <path
       id="path1049"
       style="fill:#33aaff;fill-opacity:1;stroke:none;stroke-width:0.265;stroke-linecap:round;stroke-linejoin:round;stroke-miterlimit:4;stroke-dasharray:none;stroke-opacity:1"
       d="m 17.832917,235.37335 c 0.846548,-0.42327 1.693095,-0.84655 2.543738,-1.26404 -0.10141,-2.99779 1.76307,-8.26999 3.528862,-9.22614 1.651536,0.24491 4.387685,3.27028 5.785169,5.91104 1.583974,-0.32029 3.269576,-0.50087 5.075563,-0.50087 1.805988,0 3.49159,0.18058 5.075561,0.50087 1.397484,-2.64076 4.133635,-5.66613 5.78517,-5.91104 1.765792,0.95615 3.630276,6.22835 3.530848,9.2271 0.851281,0.41784 1.696517,0.84046 2.541754,1.26308 l 10e-7,-20.32 H 17.832917 Z"
       inkscape:connector-curvature="0"
       sodipodi:nodetypes="ccccsccccccc"
       inkscape:export-xdpi="300"
       inkscape:export-ydpi="300" />
    <path
       id="path1049-3-2"
       style="fill:#ffaa33;fill-opacity:1;stroke:none;stroke-width:0.265;stroke-linecap:round;stroke-linejoin:round;stroke-miterlimit:4;stroke-dasharray:none;stroke-opacity:1"
       d="m 17.832917,235.37335 c 0.846548,-0.42327 1.693095,-0.84655 2.543738,-1.26404 -0.10141,-2.99779 1.76307,-8.26999 3.528862,-9.22614 1.651536,0.24491 4.387684,3.27028 5.785168,5.91104 1.583974,-0.32029 3.269576,-0.50087 5.075563,-0.50087 1.805988,0 3.49159,0.18058 5.075561,0.50087 1.397484,-2.64076 4.133635,-5.66613 5.785172,-5.91104 1.765792,0.95615 3.630276,6.22835 3.530846,9.2271 0.851281,0.41784 1.696519,0.84046 2.541754,1.26308 l 2e-6,13.54666 H 17.832917 Z"
       inkscape:connector-curvature="0"
       sodipodi:nodetypes="ccccsccccccc"
       inkscape:export-xdpi="300"
       inkscape:export-ydpi="300" />
    <path
       id="path1049-3"
       style="fill:none;stroke:#ffffff;stroke-width:1.5875;stroke-linecap:round;stroke-linejoin:round;stroke-miterlimit:4;stroke-dasharray:none;stroke-opacity:1"
       d="m 17.832917,235.37335 c 0.846548,-0.42327 1.693095,-0.84655 2.543738,-1.26404 -0.10141,-2.99779 1.76307,-8.26999 3.528862,-9.22614 1.651536,0.24491 4.387684,3.27028 5.785168,5.91104 1.583974,-0.32029 3.269576,-0.50087 5.075563,-0.50087 1.805988,0 3.49159,0.18058 5.075561,0.50087 1.397484,-2.64076 4.133635,-5.66613 5.785171,-5.91104 1.765792,0.95615 3.630276,6.22835 3.530846,9.2271 0.851281,0.41784 1.696519,0.84046 2.541754,1.26308"
       inkscape:connector-curvature="0"
       sodipodi:nodetypes="ccccscccc" />
  </g>
</svg>
