<?xml version="1.0" encoding="UTF-8" standalone="no"?>
<!-- Created with Inkscape (http://www.inkscape.org/) -->

<svg
   xmlns:dc="http://purl.org/dc/elements/1.1/"
   xmlns:cc="http://creativecommons.org/ns#"
   xmlns:rdf="http://www.w3.org/1999/02/22-rdf-syntax-ns#"
   xmlns:svg="http://www.w3.org/2000/svg"
   xmlns="http://www.w3.org/2000/svg"
   xmlns:sodipodi="http://sodipodi.sourceforge.net/DTD/sodipodi-0.dtd"
   xmlns:inkscape="http://www.inkscape.org/namespaces/inkscape"
   width="210mm"
   height="210mm"
   viewBox="0 0 210 210"
   version="1.1"
   id="svg8"
   inkscape:version="0.92.4 (5da689c313, 2019-01-14)"
   sodipodi:docname="CL_KIITA_Logo2.svg"
   inkscape:export-filename="D:\ResDev\_Orgs\CL-GDAL\CL_KIITA\ident\CL_KIITA_Logo.png"
   inkscape:export-xdpi="25.4"
   inkscape:export-ydpi="25.4">
  <defs
     id="defs2">
    <pattern
       y="0"
       x="0"
       height="6"
       width="6"
       patternUnits="userSpaceOnUse"
       id="EMFhbasepattern" />
  </defs>
  <sodipodi:namedview
     id="base"
     pagecolor="#ffffff"
     bordercolor="#666666"
     borderopacity="1.0"
     inkscape:pageopacity="0.0"
     inkscape:pageshadow="2"
     inkscape:zoom="0.49497475"
     inkscape:cx="346.15862"
     inkscape:cy="546.54925"
     inkscape:document-units="mm"
     inkscape:current-layer="layer1"
     showgrid="false"
     inkscape:window-width="1842"
     inkscape:window-height="1051"
     inkscape:window-x="1669"
     inkscape:window-y="-9"
     inkscape:window-maximized="1" />
  <metadata
     id="metadata5">
    <rdf:RDF>
      <cc:Work
         rdf:about="">
        <dc:format>image/svg+xml</dc:format>
        <dc:type
           rdf:resource="http://purl.org/dc/dcmitype/StillImage" />
        <dc:title></dc:title>
      </cc:Work>
    </rdf:RDF>
  </metadata>
  <g
     inkscape:label="レイヤー 1"
     inkscape:groupmode="layer"
     id="layer1"
     transform="translate(0,-87)">
    <path
       id="path818"
       d="m 119.92087,161.65465 c 5.82637,4.16406 7.77406,12.45866 4.34878,18.52007 -3.42528,6.06141 -10.9307,7.60615 -16.77384,3.42528 -5.82633,-4.1641 -7.774051,-12.45863 -4.34877,-18.52007 3.44209,-6.06136 10.9475,-7.58937 16.77383,-3.42528 z"
       style="fill:#941f57;fill-opacity:1;fill-rule:nonzero;stroke:none;stroke-width:0.2098843"
       inkscape:connector-curvature="0"
       inkscape:export-xdpi="25.4"
       inkscape:export-ydpi="25.4" />
    <path
       id="path820"
       d="m 149.48917,165.71799 c 2.18279,6.7666 -1.15856,14.40638 -7.47183,17.05929 -6.31327,2.65287 -13.19742,-0.67166 -15.397,-7.45508 -2.18278,-6.76661 1.15855,-14.40636 7.47183,-17.05926 6.31327,-2.65289 13.2142,0.67162 15.397,7.45505 z"
       style="fill:#941f57;fill-opacity:1;fill-rule:nonzero;stroke:none;stroke-width:0.2098843"
       inkscape:connector-curvature="0"
       inkscape:export-xdpi="25.4"
       inkscape:export-ydpi="25.4" />
    <path
       id="path822"
       d="m 136.72829,192.02887 c 1.02423,7.08568 -3.61,14.23844 -10.35982,15.96792 -6.74982,1.72944 -13.04632,-2.61935 -14.08733,-9.72182 -1.02424,-7.0856 3.60998,-14.23844 10.35982,-15.96784 6.73305,-1.72944 13.04632,2.61933 14.08733,9.72174 z"
       style="fill:#941f57;fill-opacity:1;fill-rule:nonzero;stroke:none;stroke-width:0.2098843"
       inkscape:connector-curvature="0"
       inkscape:export-xdpi="25.4"
       inkscape:export-ydpi="25.4" />
    <path
       id="path824"
       d="m 159.21095,187.86483 c 2.95513,6.53148 0.48689,14.67498 -5.52414,18.21781 -5.99422,3.52607 -13.26459,1.09139 -16.21974,-5.44014 -2.95514,-6.53156 -0.48692,-14.69175 5.52412,-18.21786 5.99427,-3.52597 13.26459,-1.09137 16.21976,5.44019 z"
       style="fill:#941f57;fill-opacity:1;fill-rule:nonzero;stroke:none;stroke-width:0.2098843"
       inkscape:connector-curvature="0"
       inkscape:export-xdpi="25.4"
       inkscape:export-ydpi="25.4" />
    <path
       id="path826"
       d="m 178.78879,188.21747 c 3.02236,6.53151 0.48693,14.67495 -5.67526,18.201 -6.14534,3.52601 -13.60035,1.10817 -16.63944,-5.4234 -3.02237,-6.53151 -0.48693,-14.67498 5.65841,-18.20103 6.16217,-3.52601 13.61717,-1.10814 16.65629,5.42343 z"
       style="fill:#941f57;fill-opacity:1;fill-rule:nonzero;stroke:none;stroke-width:0.2098843"
       inkscape:connector-curvature="0"
       inkscape:export-xdpi="25.4"
       inkscape:export-ydpi="25.4" />
    <path
       id="path828"
       d="m 172.74415,164.02215 c 3.02233,6.39722 0.50374,14.38956 -5.6417,17.84841 -6.12853,3.45888 -13.54995,1.07461 -16.57227,-5.32262 -3.02233,-6.39724 -0.50375,-14.38957 5.64164,-17.84843 6.12856,-3.45887 13.55005,-1.07457 16.57233,5.32264 z"
       style="fill:#941f57;fill-opacity:1;fill-rule:nonzero;stroke:none;stroke-width:0.2098843"
       inkscape:connector-curvature="0"
       inkscape:export-xdpi="25.4"
       inkscape:export-ydpi="25.4" />
    <path
       id="path830"
       d="m 198.13158,179.45274 c -2.08205,6.86735 -9.31878,11.36723 -16.15259,10.07432 -6.83383,-1.29284 -10.71241,-7.90835 -8.63035,-14.77573 2.08202,-6.85059 9.302,-11.3672 16.15259,-10.05756 6.83377,1.29285 10.69559,7.9084 8.63035,14.75897 z"
       style="fill:#941f57;fill-opacity:1;fill-rule:nonzero;stroke:none;stroke-width:0.2098843"
       inkscape:connector-curvature="0"
       inkscape:export-xdpi="25.4"
       inkscape:export-ydpi="25.4" />
    <path
       id="path832"
       d="m 146.19821,209.42398 c 2.90477,6.24606 0.47014,14.05371 -5.42337,17.42865 -5.91031,3.37492 -13.04632,1.05781 -15.96791,-5.2051 -2.90477,-6.24607 -0.47014,-14.05376 5.44018,-17.42867 5.89352,-3.39168 13.04632,-1.05779 15.9511,5.20512 z"
       style="fill:#941f57;fill-opacity:1;fill-rule:nonzero;stroke:none;stroke-width:0.2098843"
       inkscape:connector-curvature="0"
       inkscape:export-xdpi="25.4"
       inkscape:export-ydpi="25.4" />
    <path
       id="path834"
       d="m 174.7087,213.38652 c 2.03164,6.93453 -1.6791,14.60787 -8.2442,17.16006 -6.58197,2.53538 -13.55007,-1.00741 -15.58173,-7.92518 -2.01486,-6.93452 1.67908,-14.60783 8.26099,-17.16003 6.5819,-2.53534 13.55001,1.00747 15.56494,7.92515 z"
       style="fill:#941f57;fill-opacity:1;fill-rule:nonzero;stroke:none;stroke-width:0.2098843"
       inkscape:connector-curvature="0"
       inkscape:export-xdpi="25.4"
       inkscape:export-ydpi="25.4" />
    <path
       id="path836"
       d="m 149.45559,224.23327 c 6.64908,2.68654 10.4941,10.29269 8.57999,16.99208 -1.91409,6.69951 -8.84864,9.95687 -15.49774,7.27041 -6.64908,-2.68651 -10.47735,-10.2927 -8.5632,-16.99215 1.91412,-6.69942 8.84864,-9.9568 15.48095,-7.27034 z"
       style="fill:#941f57;fill-opacity:1;fill-rule:nonzero;stroke:none;stroke-width:0.2098843"
       inkscape:connector-curvature="0"
       inkscape:export-xdpi="25.4"
       inkscape:export-ydpi="25.4" />
    <path
       id="path838"
       d="m 42.674964,271.69524 c -4.029746,-0.084 -6.481177,-0.0671 -7.236759,-2.61933 -0.537294,-3.27415 -0.251861,-5.692 6.330055,-6.66588 13.466013,-1.81338 24.060836,-0.92344 23.523533,-18.87262 l -0.10077,-49.4484 24.161664,-0.16787 -0.100812,49.44841 c -0.537303,17.94912 10.074372,17.07601 23.540445,18.8726 6.56515,0.97388 6.85056,3.39169 6.33007,6.68266 -0.77235,2.53536 -3.20702,2.53536 -7.23676,2.61936 l -69.210766,0.15116 M 111.88562,116.31471 c 4.02975,0.0675 6.4644,0.0675 7.23674,2.61937 0.52051,3.27417 0.23508,5.69207 -6.33005,6.66591 -13.466072,1.81339 -24.077796,0.92352 -23.540483,18.87274 l 0.100822,49.44841 -24.161685,0.16787 0.100769,-49.44837 c 0.537285,-17.94925 -10.05754,-17.07612 -23.523531,-18.87273 -6.581936,-0.97386 -6.867368,-3.39176 -6.330074,-6.68268 0.755583,-2.53542 3.207013,-2.53542 7.236759,-2.6194 z"
       style="fill:#640125;fill-opacity:1;fill-rule:nonzero;stroke:none;stroke-width:0.2098843"
       inkscape:connector-curvature="0"
       inkscape:export-xdpi="25.4"
       inkscape:export-ydpi="25.4" />
    <path
       id="path840"
       d="m 198.1876,230.95785 c 5.82637,4.18083 7.77407,12.47548 4.33201,18.53683 -3.42532,6.06145 -10.93074,7.58937 -16.75704,3.42528 -5.82637,-4.18088 -7.77408,-12.47542 -4.34885,-18.5368 3.42532,-6.06142 10.93076,-7.58941 16.77388,-3.42531 z"
       style="fill:#941f57;fill-opacity:1;fill-rule:nonzero;stroke:none;stroke-width:0.2098843"
       inkscape:connector-curvature="0"
       inkscape:export-xdpi="25.4"
       inkscape:export-ydpi="25.4" />
    <path
       id="path844"
       d="m 191.36764,263.71164 c 2.90477,6.24618 0.47012,14.0538 -5.44015,17.4455 -5.89349,3.37494 -13.04631,1.04102 -15.95115,-5.20512 -2.90473,-6.26289 -0.47011,-14.07051 5.42342,-17.44542 5.91033,-3.37492 13.06308,-1.04099 15.96788,5.20504 z"
       style="fill:#941f57;fill-opacity:1;fill-rule:nonzero;stroke:none;stroke-width:0.2098843"
       inkscape:connector-curvature="0"
       inkscape:export-xdpi="25.4"
       inkscape:export-ydpi="25.4" />
    <path
       id="path846"
       d="m 35.438205,269.07591 c -2.082032,6.86739 -9.318796,11.36728 -16.152577,10.07441 -6.850581,-1.29291 -10.7123939,-7.90838 -8.630362,-14.77575 2.081995,-6.86735 9.301992,-11.36729 16.152558,-10.07436 6.833765,1.30967 10.695626,7.92514 8.630381,14.7757 z"
       style="fill:#941f57;fill-opacity:1;fill-rule:nonzero;stroke:none;stroke-width:0.2098843"
       inkscape:connector-curvature="0"
       inkscape:export-xdpi="25.4"
       inkscape:export-ydpi="25.4" />
    <path
       id="path848"
       d="m 159.66426,148.91058 c -13.80188,12.87839 -31.6335,9.95684 -37.86283,-0.53732 -6.36364,-13.11346 0.90669,-23.7587 9.90648,-25.48813 10.10793,-1.56153 17.07604,4.34877 16.40443,10.05757 0.15114,8.00915 -4.56706,13.56683 -11.23293,13.48285 -5.10435,0.0838 -7.27033,-5.08753 -6.53156,-8.39527 0.97387,-2.56899 1.19214,-3.19022 2.97194,-4.04654 0.83955,0.77235 -0.97386,-0.5541 -1.91411,3.97936 -0.1343,6.64909 4.81889,5.96063 6.33006,5.55773 7.57256,-2.58578 7.79082,-9.60425 5.97744,-12.42508 -2.9887,-5.05398 -11.75344,-5.50734 -15.49775,-0.0504 -4.8189,6.64908 -4.68456,10.4438 -0.63802,17.32795 5.57449,6.85053 11.40083,7.08563 16.30368,6.17894 4.70138,-0.68846 10.19192,-3.42529 15.19552,-6.07822 1.34325,-0.77237 1.15852,-0.20149 0.58765,0.43655 z"
       style="fill:#941f57;fill-opacity:1;fill-rule:nonzero;stroke:none;stroke-width:0.2098843"
       inkscape:connector-curvature="0"
       inkscape:export-xdpi="25.4"
       inkscape:export-ydpi="25.4" />
    <path
       id="path850"
       d="m 60.678598,237.51156 c -2.082044,6.86738 -9.302009,11.36724 -16.152575,10.07438 -6.833779,-1.30968 -10.695625,-7.92517 -8.630379,-14.77575 2.082028,-6.86734 9.318794,-11.36727 16.152575,-10.07438 6.850582,1.30969 10.712409,7.90838 8.630379,14.77575 z"
       style="fill:#941f57;fill-opacity:1;fill-rule:nonzero;stroke:none;stroke-width:0.2098843"
       inkscape:connector-curvature="0"
       inkscape:export-xdpi="25.4"
       inkscape:export-ydpi="25.4" />
    <path
       id="path852"
       d="m 164.71825,145.77074 7.79084,-8.69755 c 0,0 13.56683,1.34326 16.79065,-1.04101 0.30217,-0.0841 -15.36345,-0.90668 -15.36345,-0.90668 l 11.31687,-9.88968 4.04658,-0.97387 -3.22382,-0.90668 -1.72942,-5.77598 -1.19214,5.85991 -11.7031,10.41019 -4.7853,-11.31687 c 0.36942,5.10435 0.5205,7.57257 3.44205,13.41569 l -6.49792,8.86546 c -12.52586,-2.82086 -12.42511,-10.82993 -11.28335,-18.67117 1.89737,-0.0673 3.91228,0.35261 5.45699,1.22572 -0.8731,-12.25715 6.17893,-18.10031 12.77768,-21.55917 1.57832,1.36003 2.98872,3.91221 3.67712,7.50542 10.10797,-5.54092 18.88946,-3.15666 23.90982,-1.94772 0.30221,3.82827 0.43658,13.26458 -5.32261,20.83716 5.69201,-0.47012 6.80021,0.1847 8.24418,0.82275 -0.52047,4.65099 -6.24612,18.30178 -14.40629,20.09839 -1.00749,-1.34328 -3.25744,-1.22575 -2.97197,1.5783 -1.69588,-0.45333 -6.1454,2.98873 -7.5222,3.35812 -7.37109,-3.12302 -9.40277,-6.17896 -11.45121,-12.29073 z"
       style="fill:#941f57;fill-opacity:1;fill-rule:nonzero;stroke:#000000;stroke-width:0.20148744px;stroke-linecap:butt;stroke-linejoin:miter;stroke-miterlimit:4;stroke-dasharray:none;stroke-opacity:1"
       inkscape:connector-curvature="0"
       inkscape:export-xdpi="25.4"
       inkscape:export-ydpi="25.4" />
  </g>
</svg>
