<?xml version="1.0" encoding="UTF-8" standalone="no"?>
<!-- Created with Inkscape (http://www.inkscape.org/) -->

<svg
   xmlns:dc="http://purl.org/dc/elements/1.1/"
   xmlns:cc="http://creativecommons.org/ns#"
   xmlns:rdf="http://www.w3.org/1999/02/22-rdf-syntax-ns#"
   xmlns:svg="http://www.w3.org/2000/svg"
   xmlns="http://www.w3.org/2000/svg"
   xmlns:sodipodi="http://sodipodi.sourceforge.net/DTD/sodipodi-0.dtd"
   xmlns:inkscape="http://www.inkscape.org/namespaces/inkscape"
   width="600mm"
   height="250mm"
   viewBox="0 0 600 250"
   version="1.1"
   id="svg8"
   inkscape:version="0.92.4 (5da689c313, 2019-01-14)"
   sodipodi:docname="CL_KIITA_Logo5.svg"
   inkscape:export-filename="D:\ResDev\_Orgs\CL-GDAL\CL_KIITA\ident\CL_KIITA_Logo5.png"
   inkscape:export-xdpi="25.4"
   inkscape:export-ydpi="25.4">
  <defs
     id="defs2">
    <pattern
       y="0"
       x="0"
       height="6"
       width="6"
       patternUnits="userSpaceOnUse"
       id="EMFhbasepattern" />
  </defs>
  <sodipodi:namedview
     id="base"
     pagecolor="#ffffff"
     bordercolor="#666666"
     borderopacity="1.0"
     inkscape:pageopacity="0.0"
     inkscape:pageshadow="2"
     inkscape:zoom="0.24748738"
     inkscape:cx="1327.2163"
     inkscape:cy="-615.98579"
     inkscape:document-units="mm"
     inkscape:current-layer="layer1"
     showgrid="false"
     inkscape:window-width="1842"
     inkscape:window-height="1051"
     inkscape:window-x="1669"
     inkscape:window-y="-9"
     inkscape:window-maximized="1" />
  <metadata
     id="metadata5">
    <rdf:RDF>
      <cc:Work
         rdf:about="">
        <dc:format>image/svg+xml</dc:format>
        <dc:type
           rdf:resource="http://purl.org/dc/dcmitype/StillImage" />
        <dc:title></dc:title>
      </cc:Work>
    </rdf:RDF>
  </metadata>
  <g
     inkscape:label="レイヤー 1"
     inkscape:groupmode="layer"
     id="layer1"
     transform="translate(0,-47)">
    <path
       id="path818"
       d="m 172.62815,110.8337 c 3.75986,2.68715 5.01674,8.03981 2.80634,11.95135 -2.2104,3.91153 -7.05377,4.90839 -10.82447,2.2104 -3.75984,-2.68717 -5.01675,-8.0398 -2.80634,-11.95137 2.22124,-3.91149 7.06461,-4.89755 10.82447,-2.21038 z"
       style="fill:#941f57;fill-opacity:1;fill-rule:nonzero;stroke:none;stroke-width:0.13544236"
       inkscape:connector-curvature="0"
       inkscape:export-xdpi="25.4"
       inkscape:export-ydpi="25.4" />
    <path
       id="path820"
       d="m 191.70914,113.45584 c 1.40859,4.36662 -0.74765,9.29673 -4.82173,11.00868 -4.07408,1.71198 -8.51655,-0.43341 -9.93598,-4.8109 -1.40859,-4.36662 0.74765,-9.29669 4.82172,-11.00866 4.07407,-1.71197 8.52739,0.43341 9.93599,4.81088 z"
       style="fill:#941f57;fill-opacity:1;fill-rule:nonzero;stroke:none;stroke-width:0.13544236"
       inkscape:connector-curvature="0"
       inkscape:export-xdpi="25.4"
       inkscape:export-ydpi="25.4" />
    <path
       id="path822"
       d="m 183.47429,130.43476 c 0.66096,4.57253 -2.32959,9.18834 -6.68538,10.30441 -4.35579,1.11605 -8.41905,-1.69031 -9.09082,-6.27367 -0.66096,-4.57248 2.32958,-9.18834 6.68538,-10.30436 4.34496,-1.11604 8.41904,1.69031 9.09082,6.27362 z"
       style="fill:#941f57;fill-opacity:1;fill-rule:nonzero;stroke:none;stroke-width:0.13544236"
       inkscape:connector-curvature="0"
       inkscape:export-xdpi="25.4"
       inkscape:export-ydpi="25.4" />
    <path
       id="path824"
       d="m 197.98278,127.74764 c 1.90701,4.2149 0.31419,9.47004 -3.56484,11.75629 -3.86818,2.27544 -8.55987,0.7043 -10.46689,-3.51063 -1.90702,-4.21493 -0.31422,-9.48087 3.56481,-11.75633 3.86822,-2.27539 8.55991,-0.70429 10.46692,3.51067 z"
       style="fill:#941f57;fill-opacity:1;fill-rule:nonzero;stroke:none;stroke-width:0.13544236"
       inkscape:connector-curvature="0"
       inkscape:export-xdpi="25.4"
       inkscape:export-ydpi="25.4" />
    <path
       id="path826"
       d="m 210.61673,127.97519 c 1.9504,4.21491 0.31423,9.47003 -3.66235,11.74546 -3.9657,2.2754 -8.77655,0.71512 -10.73776,-3.49981 -1.95037,-4.21494 -0.31422,-9.47006 3.65151,-11.74548 3.97655,-2.27542 8.78743,-0.71514 10.7486,3.49983 z"
       style="fill:#941f57;fill-opacity:1;fill-rule:nonzero;stroke:none;stroke-width:0.13544236"
       inkscape:connector-curvature="0"
       inkscape:export-xdpi="25.4"
       inkscape:export-ydpi="25.4" />
    <path
       id="path828"
       d="m 206.71603,112.36151 c 1.95036,4.12821 0.32507,9.28585 -3.6407,11.51789 -3.95486,2.23209 -8.74405,0.69347 -10.69441,-3.43477 -1.95036,-4.12825 -0.32507,-9.28587 3.64066,-11.51794 3.95487,-2.23208 8.7441,-0.69345 10.69445,3.43482 z"
       style="fill:#941f57;fill-opacity:1;fill-rule:nonzero;stroke:none;stroke-width:0.13544236"
       inkscape:connector-curvature="0"
       inkscape:export-xdpi="25.4"
       inkscape:export-ydpi="25.4" />
    <path
       id="path830"
       d="m 223.099,122.31914 c -1.34356,4.43164 -6.01356,7.33551 -10.42356,6.50117 -4.41,-0.83431 -6.91291,-5.10341 -5.56935,-9.53507 1.34359,-4.42082 6.00277,-7.3355 10.42361,-6.49033 4.40995,0.83432 6.90206,5.10344 5.5693,9.52423 z"
       style="fill:#941f57;fill-opacity:1;fill-rule:nonzero;stroke:none;stroke-width:0.13544236"
       inkscape:connector-curvature="0"
       inkscape:export-xdpi="25.4"
       inkscape:export-ydpi="25.4" />
    <path
       id="path832"
       d="m 189.58542,141.66017 c 1.8745,4.03069 0.30339,9.06911 -3.4998,11.24703 -3.81404,2.1779 -8.41904,0.68263 -10.3044,-3.35895 -1.87451,-4.03071 -0.30338,-9.06916 3.51065,-11.24706 3.8032,-2.18872 8.41904,-0.6826 10.29355,3.35898 z"
       style="fill:#941f57;fill-opacity:1;fill-rule:nonzero;stroke:none;stroke-width:0.13544236"
       inkscape:connector-curvature="0"
       inkscape:export-xdpi="25.4"
       inkscape:export-ydpi="25.4" />
    <path
       id="path834"
       d="m 207.98379,144.21728 c 1.31105,4.47496 -1.08356,9.42674 -5.32016,11.07369 -4.24746,1.63612 -8.74409,-0.6501 -10.05518,-5.11426 -1.30022,-4.47497 1.08354,-9.42671 5.33098,-11.0737 4.24743,-1.63611 8.74407,0.65015 10.04436,5.11427 z"
       style="fill:#941f57;fill-opacity:1;fill-rule:nonzero;stroke:none;stroke-width:0.13544236"
       inkscape:connector-curvature="0"
       inkscape:export-xdpi="25.4"
       inkscape:export-ydpi="25.4" />
    <path
       id="path836"
       d="m 191.68747,151.21689 c 4.29079,1.73367 6.77203,6.64206 5.53682,10.96531 -1.23522,4.32331 -5.7102,6.42534 -10.00098,4.69172 -4.29078,-1.73365 -6.76122,-6.64207 -5.52602,-10.96535 1.23524,-4.32327 5.71023,-6.42532 9.99018,-4.69168 z"
       style="fill:#941f57;fill-opacity:1;fill-rule:nonzero;stroke:none;stroke-width:0.13544236"
       inkscape:connector-curvature="0"
       inkscape:export-xdpi="25.4"
       inkscape:export-ydpi="25.4" />
    <path
       id="path838"
       d="m 168.15317,273.39583 c -2.60047,-0.0544 -4.18243,-0.0434 -4.67003,-1.69032 -0.34672,-2.11286 -0.16252,-3.67314 4.08492,-4.3016 8.68993,-1.17022 15.52701,-0.59593 15.18027,-12.17886 l -0.065,-31.91 15.59201,-0.10835 -0.065,31.91002 c -0.34674,11.5829 6.50118,11.01948 15.19111,12.17885 4.23661,0.62846 4.42077,2.18873 4.0849,4.31246 -0.49841,1.63611 -2.06954,1.63611 -4.67002,1.6903 l -44.66314,0.0977 m 44.66303,-100.27002 c 2.60049,0.0435 4.1716,0.0435 4.67002,1.69032 0.33588,2.11288 0.1517,3.67315 -4.0849,4.30161 -8.68993,1.1702 -15.53787,0.59597 -15.19114,12.17889 l 0.065,31.90999 -15.59201,0.10835 0.0649,-31.90996 c 0.34672,-11.58297 -6.49035,-11.01953 -15.18027,-12.17889 -4.24744,-0.62846 -4.43164,-2.18876 -4.08492,-4.31245 0.48759,-1.63614 2.06956,-1.63614 4.67003,-1.69033 z"
       style="fill:#640125;fill-opacity:1;fill-rule:nonzero;stroke:none;stroke-width:0.13544236"
       inkscape:connector-curvature="0"
       inkscape:export-xdpi="25.4"
       inkscape:export-ydpi="25.4" />
    <path
       id="path840"
       d="m 220.92111,158.87746 c 3.75988,2.69797 5.01678,8.05065 2.79555,11.96217 -2.21042,3.91156 -7.05383,4.89757 -10.81364,2.2104 -3.75989,-2.69799 -5.01677,-8.05064 -2.8064,-11.96215 2.21041,-3.91155 7.05383,-4.89758 10.82449,-2.21042 z"
       style="fill:#941f57;fill-opacity:1;fill-rule:nonzero;stroke:none;stroke-width:0.13544236"
       inkscape:connector-curvature="0"
       inkscape:export-xdpi="25.4"
       inkscape:export-ydpi="25.4" />
    <path
       id="path842"
       d="m 244.62877,186.1933 c 1.90701,4.21491 0.31424,9.47004 -3.55397,11.7563 -3.87904,2.27541 -8.57073,0.70428 -10.47775,-3.51066 -1.90701,-4.21493 -0.31424,-9.4809 3.56481,-11.75629 3.87906,-2.27541 8.55993,-0.70431 10.46691,3.51065 z"
       style="fill:#941f57;fill-opacity:1;fill-rule:nonzero;stroke:none;stroke-width:0.13544236"
       inkscape:connector-curvature="0"
       inkscape:export-xdpi="25.4"
       inkscape:export-ydpi="25.4" />
    <path
       id="path844"
       d="m 224.26924,201.60106 c 1.87451,4.03076 0.30338,9.06918 -3.51065,11.25792 -3.80317,2.17792 -8.41902,0.67179 -10.29355,-3.35897 -1.87448,-4.04155 -0.30337,-9.07997 3.49983,-11.25788 3.81403,-2.17789 8.42985,-0.67176 10.30437,3.35893 z"
       style="fill:#941f57;fill-opacity:1;fill-rule:nonzero;stroke:none;stroke-width:0.13544236"
       inkscape:connector-curvature="0"
       inkscape:export-xdpi="25.4"
       inkscape:export-ydpi="25.4" />
    <path
       id="path846"
       d="m 237.95424,233.82527 c -1.34359,4.43165 -6.01363,7.33553 -10.42359,6.50121 -4.42079,-0.83432 -6.91292,-5.10342 -5.56934,-9.53506 1.34355,-4.43163 6.00275,-7.33553 10.42356,-6.50118 4.40996,0.84515 6.9021,5.11423 5.56937,9.53503 z"
       style="fill:#941f57;fill-opacity:1;fill-rule:nonzero;stroke:none;stroke-width:0.13544236"
       inkscape:connector-curvature="0"
       inkscape:export-xdpi="25.4"
       inkscape:export-ydpi="25.4" />
    <path
       id="path848"
       d="m 198.27532,102.6097 c -8.90661,8.31069 -20.41371,6.42533 -24.43361,-0.34673 -4.10659,-8.462363 0.5851,-15.331939 6.39285,-16.447975 6.52283,-1.007689 11.01949,2.806343 10.58606,6.490339 0.0977,5.168458 -2.94718,8.754936 -7.24881,8.700726 -3.29393,0.0542 -4.69168,-3.283066 -4.21493,-5.417612 0.62845,-1.657815 0.76931,-2.058716 1.91786,-2.611307 0.54176,0.498415 -0.62846,-0.357576 -1.23523,2.567962 -0.0867,4.29076 3.10974,3.846513 4.08491,3.586503 4.88672,-1.668644 5.02757,-6.19781 3.85737,-8.018146 -1.92869,-3.261431 -7.58472,-3.553989 -10.001,-0.03251 -3.10973,4.290784 -3.02304,6.739571 -0.41174,11.18204 3.59732,4.42078 7.35717,4.57248 10.52108,3.98737 3.03389,-0.44425 6.57704,-2.2104 9.80596,-3.92237 0.86683,-0.49843 0.74762,-0.13003 0.37923,0.28171 z"
       style="fill:#941f57;fill-opacity:1;fill-rule:nonzero;stroke:none;stroke-width:0.13544236"
       inkscape:connector-curvature="0"
       inkscape:export-xdpi="25.4"
       inkscape:export-ydpi="25.4" />
    <path
       id="path850"
       d="m 169.2692,174.17692 c -1.34357,4.43164 -6.00276,7.3355 -10.42357,6.50119 -4.40996,-0.84516 -6.90208,-5.11427 -5.56934,-9.53508 1.34358,-4.43163 6.01359,-7.33551 10.42357,-6.5012 4.42081,0.84517 6.91292,5.10343 5.56934,9.53509 z"
       style="fill:#941f57;fill-opacity:1;fill-rule:nonzero;stroke:none;stroke-width:0.13544236"
       inkscape:connector-curvature="0"
       inkscape:export-xdpi="25.4"
       inkscape:export-ydpi="25.4" />
    <path
       id="path852"
       d="m 201.53676,100.58352 5.02757,-5.612701 c 0,0 8.75493,0.866831 10.83532,-0.671787 0.19501,-0.05426 -9.91431,-0.585096 -9.91431,-0.585096 l 7.30298,-6.381995 2.61133,-0.628461 -2.08039,-0.585095 -1.11603,-3.727343 -0.7693,3.781508 -7.55223,6.717901 -3.08805,-7.303005 c 0.23839,3.293935 0.33589,4.886731 2.22123,8.657409 l -4.19325,5.721038 c -8.08315,-1.820334 -8.01815,-6.988752 -7.28134,-12.048856 1.2244,-0.04339 2.52464,0.227549 3.52149,0.790982 -0.56344,-7.909755 3.98739,-11.680443 8.24567,-13.912513 1.01852,0.877661 1.92867,2.524629 2.37293,4.843385 6.52285,-3.575652 12.18972,-2.037044 15.42948,-1.256895 0.195,2.470443 0.28171,8.559865 -3.43481,13.446586 3.67316,-0.303378 4.38832,0.119197 5.32013,0.53094 -0.33587,3.001377 -4.03075,11.810448 -9.29667,12.969858 -0.65012,-0.86684 -2.10207,-0.79099 -1.91785,1.01849 -1.09439,-0.29251 -3.96575,1.9287 -4.85422,2.16707 -4.75671,-2.01535 -6.06779,-3.98738 -7.38968,-7.93142 z"
       style="fill:#941f57;fill-opacity:1;fill-rule:nonzero;stroke:#000000;stroke-width:0.13002372px;stroke-linecap:butt;stroke-linejoin:miter;stroke-miterlimit:4;stroke-dasharray:none;stroke-opacity:1"
       inkscape:connector-curvature="0"
       inkscape:export-xdpi="25.4"
       inkscape:export-ydpi="25.4" />
    <path
       inkscape:connector-curvature="0"
       id="path903"
       d="m 91.498501,179.62701 -1.364478,6.24786 29.823217,-3.72924 -1.22595,-6.33711 z"
       style="fill:#83274e;fill-opacity:1;stroke:none;stroke-width:4.60277605;stroke-linecap:butt;stroke-linejoin:miter;stroke-miterlimit:4;stroke-dasharray:none;stroke-opacity:1"
       sodipodi:nodetypes="ccccc"
       inkscape:export-xdpi="25.4"
       inkscape:export-ydpi="25.4" />
    <path
       inkscape:connector-curvature="0"
       id="path905"
       d="m 84.84285,192.5908 -2.523712,12.64689 44.216162,-5.30199 -2.95462,-11.60661 z"
       style="fill:#83274e;fill-opacity:1;stroke:none;stroke-width:4.60277605;stroke-linecap:butt;stroke-linejoin:miter;stroke-miterlimit:4;stroke-dasharray:none;stroke-opacity:1"
       sodipodi:nodetypes="ccccc"
       inkscape:export-xdpi="25.4"
       inkscape:export-ydpi="25.4" />
    <path
       sodipodi:nodetypes="ccccc"
       inkscape:connector-curvature="0"
       id="path909"
       d="m 76.764986,212.64435 -3.799825,16.35888 62.004379,-7.84518 -3.43053,-15.63564 z"
       style="fill:#83274e;fill-opacity:1;stroke:none;stroke-width:4.60277605;stroke-linecap:butt;stroke-linejoin:miter;stroke-miterlimit:4;stroke-dasharray:none;stroke-opacity:1"
       inkscape:export-xdpi="25.4"
       inkscape:export-ydpi="25.4" />
    <path
       inkscape:connector-curvature="0"
       id="path913"
       d="m 66.583362,237.0621 -4.364131,17.83845 82.466129,-10.5203 -3.74034,-17.3901 z"
       style="fill:#83274e;fill-opacity:1;stroke:none;stroke-width:4.60277605;stroke-linecap:butt;stroke-linejoin:miter;stroke-miterlimit:4;stroke-dasharray:none;stroke-opacity:1"
       sodipodi:nodetypes="ccccc"
       inkscape:export-xdpi="25.4"
       inkscape:export-ydpi="25.4" />
    <path
       sodipodi:nodetypes="ccccccc"
       inkscape:connector-curvature="0"
       id="path917"
       d="m 52.526548,264.41685 100.224222,-13.21313 2.77998,14.03282 4.10037,-0.1264 0.0163,7.69129 -106.724843,-0.21058 z"
       style="fill:#83274e;fill-opacity:1;stroke:none;stroke-width:4.60277605;stroke-linecap:butt;stroke-linejoin:miter;stroke-miterlimit:4;stroke-dasharray:none;stroke-opacity:1"
       inkscape:export-xdpi="25.4"
       inkscape:export-ydpi="25.4" />
    <path
       style="fill:#640125;fill-opacity:1;stroke:none;stroke-width:0.58639771;stroke-linecap:butt;stroke-linejoin:miter;stroke-miterlimit:4;stroke-dasharray:none;stroke-opacity:1"
       d="m 133.71429,173.22321 -43.840538,0.10211 c 0.367902,-15.4519 -3.973336,-15.67263 -15.672619,-16.33485 -7.063716,0.66222 -10.227673,-2.79607 -7.505198,-11.84643 0.228488,-0.66182 -0.109335,-1.01527 -0.228903,-1.12567 -3.252305,-2.68905 -3.252305,-5.21249 -0.390699,-6.98145 0.39861,-0.22574 0.188435,-0.65705 0.06505,-0.76094 -4.955784,-3.58351 -1.729972,-5.27445 0.013,-6.65324 2.471386,-2.54942 0.468262,-3.19977 -2.627476,-4.50052 -6.165461,-2.73152 -3.720089,-5.09881 -0.05203,-9.49532 3.251822,-3.58999 5.437048,-5.95735 6.555676,-7.41414 2.133197,-2.18522 0.364206,-5.77525 0.416232,-8.636867 -1.352758,-16.935475 19.250798,-28.121715 27.887645,-29.474477 19.92718,-3.173779 33.71489,3.329868 38.60564,8.220604 13.83986,12.434961 13.16348,26.79499 11.18632,36.94068 l -1.68976,-0.45372 c 1.90897,-9.79597 2.56201,-22.612705 -10.80073,-34.618991 -4.72217,-4.722133 -17.55812,-11.096875 -36.798352,-8.032503 -8.339109,1.306124 -28.04181,12.869116 -26.259198,26.743083 -0.05024,2.762941 1.848369,8.325731 -1.068966,10.530921 -1.080064,1.40663 -3.18996,3.21585 -6.329686,6.68212 -3.541615,4.24488 -6.093283,5.26793 -0.140362,7.90529 4.632903,1.73236 4.613371,3.83742 2.084234,6.32278 -1.754354,1.52185 -4.035106,2.46361 0.416296,5.18504 0.762408,0.5768 0.679442,1.42206 0.009,1.83058 -2.762957,1.70803 -2.572362,3.33444 0.567829,5.93083 0,0 0.91811,0.82905 0.554552,1.99212 -3.057464,7.45186 -0.574365,10.07621 6.293499,9.72271 11.295977,0.63942 16.82173,1.90079 16.466508,16.82001 h 42.185016 z"
       id="path827-9"
       inkscape:connector-curvature="0"
       sodipodi:nodetypes="ccccccccccccccccccccccccccccccc"
       inkscape:export-xdpi="25.4"
       inkscape:export-ydpi="25.4" />
    <path
       style="fill:#83274e;fill-opacity:1;stroke:none;stroke-width:0.06622461px;stroke-linecap:butt;stroke-linejoin:miter;stroke-opacity:1"
       d="m 123.84204,140.75035 -0.0239,-10.8088 c 0.30748,-5.72372 0.18922,-6.05489 9.60256,-12.53539 v 11.77852 c -0.0471,3.193 0.30155,2.79682 -5.58177,7.60996 -2.14639,1.72655 -3.21663,2.22909 -3.99713,3.95571 z"
       id="path829"
       inkscape:connector-curvature="0"
       sodipodi:nodetypes="cccccc"
       inkscape:export-xdpi="25.4"
       inkscape:export-ydpi="25.4" />
    <path
       style="fill:#83274e;fill-opacity:1;stroke:none;stroke-width:0.06622461px;stroke-linecap:butt;stroke-linejoin:miter;stroke-opacity:1"
       d="m 125.7026,140.57991 c 5.32161,-2.83818 3.21069,-2.17004 14.84735,-6.04891 6.62247,-2.22326 6.50421,-1.08799 6.48055,-5.5345 v -11.54199 c -7.23801,1.54739 -6.3742,0.26356 -6.49751,5.50105 v 5.55606 c -0.14859,4.26917 0.20618,3.45318 -1.60321,4.1982 -3.31124,1.38953 -4.97589,2.35815 -6.79985,3.39695 -1.84729,1.02192 -1.4286,0.71169 -6.59994,4.10517 -0.57452,0.45534 -0.99526,0.97383 0.17261,0.36797 z"
       id="path831"
       inkscape:connector-curvature="0"
       sodipodi:nodetypes="cccccccccc"
       inkscape:export-xdpi="25.4"
       inkscape:export-ydpi="25.4" />
    <path
       style="fill:#83274e;fill-opacity:1;stroke:none;stroke-width:0.06622461px;stroke-linecap:butt;stroke-linejoin:miter;stroke-opacity:1"
       d="m 142.63843,135.26602 c 3.36385,-0.84909 5.55246,-1.17069 10.50285,-2.17416 5.68626,-0.9031 5.35175,-0.63551 5.38518,-3.41175 v -12.30907 l -5.68624,1.13728 v 10.77037 c 0.11581,3.66078 0.13948,2.83297 -4.07053,3.96828 -2.99494,0.70711 -3.10471,0.70211 -6.14941,1.5137 -0.96859,0.3381 -1.45357,0.80635 0.0183,0.50535 z"
       id="path833"
       inkscape:connector-curvature="0"
       sodipodi:nodetypes="cccccccccc"
       inkscape:export-xdpi="25.4"
       inkscape:export-ydpi="25.4" />
    <path
       style="fill:#83274e;fill-opacity:1;stroke:none;stroke-width:0.06622461px;stroke-linecap:butt;stroke-linejoin:miter;stroke-opacity:1"
       d="m 121.8736,140.88161 0.0239,-10.80879 c -0.30746,-5.7237 -0.18919,-6.05486 -9.60257,-12.53536 v 11.77845 c 0.0472,3.19301 -0.30155,2.79687 5.58179,7.60998 2.14638,1.72651 3.21663,2.22915 3.99712,3.95572 z"
       id="path829-2"
       inkscape:connector-curvature="0"
       sodipodi:nodetypes="cccccc"
       inkscape:export-xdpi="25.4"
       inkscape:export-ydpi="25.4" />
    <path
       style="fill:#83274e;fill-opacity:1;stroke:none;stroke-width:0.06622461px;stroke-linecap:butt;stroke-linejoin:miter;stroke-opacity:1"
       d="m 120.01308,140.71116 c -5.32164,-2.83818 -3.21073,-2.17002 -14.84734,-6.04892 -6.622454,-2.22326 -6.5042,-1.08796 -6.480543,-5.53449 v -11.542 c 7.237973,1.54743 6.374223,0.26357 6.497523,5.50106 v 5.55609 c 0.14859,4.26912 -0.20618,3.45314 1.60315,4.19819 3.31123,1.38953 4.97589,2.35815 6.79986,3.39699 1.84729,1.02183 1.4286,0.71165 6.59993,4.10512 0.57453,0.45532 0.99526,0.97383 -0.17258,0.36796 z"
       id="path831-1"
       inkscape:connector-curvature="0"
       sodipodi:nodetypes="cccccccccc"
       inkscape:export-xdpi="25.4"
       inkscape:export-ydpi="25.4" />
    <path
       style="fill:#83274e;fill-opacity:1;stroke:none;stroke-width:0.06622461px;stroke-linecap:butt;stroke-linejoin:miter;stroke-opacity:1"
       d="m 103.07727,135.39727 c -3.363879,-0.84908 -5.552463,-1.17068 -10.502841,-2.17415 -5.686245,-0.90312 -5.351757,-0.63555 -5.385209,-3.4118 V 117.5023 l 5.686249,1.13725 V 129.41 c -0.115819,3.66075 -0.13947,2.83296 4.070527,3.96823 2.994957,0.70715 3.104714,0.70209 6.149424,1.51366 0.96856,0.33814 1.45358,0.8064 -0.018,0.50538 z"
       id="path833-9"
       inkscape:connector-curvature="0"
       sodipodi:nodetypes="cccccccccc"
       inkscape:export-xdpi="25.4"
       inkscape:export-ydpi="25.4" />
    <path
       style="opacity:1;fill:#f3b14f;fill-opacity:1;stroke:none;stroke-width:0.1538489;stroke-linecap:round;stroke-linejoin:round;stroke-miterlimit:4;stroke-dasharray:none;stroke-dashoffset:53.70708847;stroke-opacity:1;paint-order:normal"
       d="m 91.812374,159.22967 v 2.01914 h 59.578586 7.33894 v -2.01914 h -7.33894 z"
       id="rect817-11-3-9"
       inkscape:connector-curvature="0"
       inkscape:export-xdpi="25.4"
       inkscape:export-ydpi="25.4" />
    <path
       style="opacity:1;fill:#f3b14f;fill-opacity:1;stroke:none;stroke-width:0.19092481;stroke-linecap:round;stroke-linejoin:round;stroke-miterlimit:4;stroke-dasharray:none;stroke-dashoffset:53.70708847;stroke-opacity:1;paint-order:normal"
       d="m 92.917947,164.79404 v 2.01914 H 135.072 146.3744 v -2.01914 H 135.072 Z"
       id="rect817-11-3-9-9"
       inkscape:connector-curvature="0"
       inkscape:export-xdpi="25.4"
       inkscape:export-ydpi="25.4" />
    <path
       style="opacity:1;fill:#f3b14f;fill-opacity:1;stroke:none;stroke-width:0.17263032;stroke-linecap:round;stroke-linejoin:round;stroke-miterlimit:4;stroke-dasharray:none;stroke-dashoffset:53.70708847;stroke-opacity:1;paint-order:normal"
       d="m 87.896314,153.76285 v 2.01915 h 61.745166 9.24007 v -2.01915 h -9.24007 z"
       id="rect817-11-3-9-0"
       inkscape:connector-curvature="0"
       inkscape:export-xdpi="25.4"
       inkscape:export-ydpi="25.4" />
    <path
       style="opacity:1;fill:#f3b14f;fill-opacity:1;stroke:none;stroke-width:0.38767043;stroke-linecap:round;stroke-linejoin:round;stroke-miterlimit:4;stroke-dasharray:none;stroke-dashoffset:53.70708847;stroke-opacity:1;paint-order:normal"
       d="m 87.879992,143.25135 v 2.01893 h 46.598598 24.09072 v -2.01893 h -24.09072 z"
       id="rect817"
       inkscape:connector-curvature="0"
       inkscape:export-xdpi="25.4"
       inkscape:export-ydpi="25.4" />
    <path
       style="opacity:1;fill:#f3b14f;fill-opacity:1;stroke:none;stroke-width:0.40232217;stroke-linecap:round;stroke-linejoin:round;stroke-miterlimit:4;stroke-dasharray:none;stroke-dashoffset:53.70708847;stroke-opacity:1;paint-order:normal"
       d="m 87.888155,148.29868 v 2.01892 h 50.187575 20.64977 v -2.01892 h -20.64977 z"
       id="rect817-11"
       inkscape:connector-curvature="0"
       inkscape:export-xdpi="25.4"
       inkscape:export-ydpi="25.4" />
    <path
       style="opacity:1;fill:#640125;fill-opacity:1;stroke:#442222;stroke-width:0.12022921;stroke-linecap:round;stroke-linejoin:round;stroke-miterlimit:4;stroke-dasharray:none;stroke-dashoffset:53.70708847;stroke-opacity:1;paint-order:normal"
       d="m 89.086392,142.8765 h 9.465213 v 13.92313 h -9.465213 z"
       id="rect815"
       inkscape:connector-curvature="0"
       inkscape:export-xdpi="25.4"
       inkscape:export-ydpi="25.4" />
    <path
       style="opacity:1;fill:#640125;fill-opacity:1;stroke:#442222;stroke-width:0.12950741;stroke-linecap:round;stroke-linejoin:round;stroke-miterlimit:4;stroke-dasharray:none;stroke-dashoffset:53.70708847;stroke-opacity:1;paint-order:normal"
       d="m 107.22122,152.46217 h 9.45595 v 16.17081 h -9.45595 z"
       id="rect815-8"
       inkscape:connector-curvature="0"
       inkscape:export-xdpi="25.4"
       inkscape:export-ydpi="25.4" />
    <path
       style="opacity:1;fill:#640125;fill-opacity:1;stroke:#442222;stroke-width:0.14179578;stroke-linecap:round;stroke-linejoin:round;stroke-miterlimit:4;stroke-dasharray:none;stroke-dashoffset:53.70708847;stroke-opacity:1;paint-order:normal"
       d="m 121.1057,142.71758 h 9.4458 v 19.40604 h -9.4458 z"
       id="rect815-8-5"
       inkscape:connector-curvature="0"
       inkscape:export-xdpi="25.4"
       inkscape:export-ydpi="25.4" />
    <path
       style="opacity:1;fill:#640125;fill-opacity:1;stroke:#442222;stroke-width:0.06434909;stroke-linecap:round;stroke-linejoin:round;stroke-miterlimit:4;stroke-dasharray:none;stroke-dashoffset:53.70708847;stroke-opacity:1;paint-order:normal"
       d="m 99.900089,152.30459 h 3.972361 v 9.5035 h -3.972361 z"
       id="rect815-8-4"
       inkscape:connector-curvature="0"
       inkscape:export-xdpi="25.4"
       inkscape:export-ydpi="25.4" />
    <path
       style="opacity:1;fill:#640125;fill-opacity:1;stroke:#442222;stroke-width:0.12630525;stroke-linecap:round;stroke-linejoin:round;stroke-miterlimit:4;stroke-dasharray:none;stroke-dashoffset:53.70708847;stroke-opacity:1;paint-order:normal"
       d="m 141.06392,147.71831 h 9.45911 v 15.37583 h -9.45911 z"
       id="rect815-8-48"
       inkscape:connector-curvature="0"
       inkscape:export-xdpi="25.4"
       inkscape:export-ydpi="25.4" />
    <path
       style="opacity:1;fill:#640125;fill-opacity:1;stroke:#442222;stroke-width:0.0551526;stroke-linecap:round;stroke-linejoin:round;stroke-miterlimit:4;stroke-dasharray:none;stroke-dashoffset:53.70708847;stroke-opacity:1;paint-order:normal"
       d="m 133.07797,152.22348 h 5.38726 v 5.14769 h -5.38726 z"
       id="rect815-8-45"
       inkscape:connector-curvature="0"
       inkscape:export-xdpi="25.4"
       inkscape:export-ydpi="25.4" />
    <path
       id="path818-9"
       d="m 458.48337,135.54358 c 6.9002,4.9315 9.20687,14.75485 5.15027,21.93339 -4.05658,7.17856 -12.94524,9.008 -19.86531,4.05657 -6.90015,-4.93157 -9.20684,-14.75478 -5.15027,-21.93341 4.0765,-7.1785 12.96516,-8.98811 19.86531,-4.05655 z"
       style="fill:#941f57;fill-opacity:1;fill-rule:nonzero;stroke:none;stroke-width:0.24856693"
       inkscape:connector-curvature="0"
       inkscape:export-xdpi="25.4"
       inkscape:export-ydpi="25.4" />
    <path
       id="path820-2"
       d="m 493.50127,140.35581 c 2.58506,8.01371 -1.37212,17.06153 -8.84895,20.2034 -7.47684,3.14177 -15.62977,-0.79546 -18.23472,-8.82911 -2.58509,-8.01373 1.37206,-17.06151 8.84891,-20.20335 7.47684,-3.14184 15.64963,0.79539 18.23476,8.82906 z"
       style="fill:#941f57;fill-opacity:1;fill-rule:nonzero;stroke:none;stroke-width:0.24856693"
       inkscape:connector-curvature="0"
       inkscape:export-xdpi="25.4"
       inkscape:export-ydpi="25.4" />
    <path
       id="path822-4"
       d="m 478.3885,171.51588 c 1.21296,8.39164 -4.27537,16.86266 -12.26924,18.91089 -7.99383,2.04818 -15.45075,-3.10209 -16.68365,-11.5136 -1.21299,-8.39148 4.27534,-16.86263 12.2692,-18.91077 7.97397,-2.04819 15.4508,3.10208 16.68369,11.51348 z"
       style="fill:#941f57;fill-opacity:1;fill-rule:nonzero;stroke:none;stroke-width:0.24856693"
       inkscape:connector-curvature="0"
       inkscape:export-xdpi="25.4"
       inkscape:export-ydpi="25.4" />
    <path
       id="path824-1"
       d="m 505.0148,166.58442 c 3.49979,7.73527 0.57663,17.37961 -6.54225,21.57542 -7.09903,4.17594 -15.70931,1.29251 -19.20911,-6.4428 -3.49979,-7.73536 -0.57669,-17.3995 6.54221,-21.5755 7.09908,-4.17581 15.70935,-1.29249 19.20915,6.44288 z"
       style="fill:#941f57;fill-opacity:1;fill-rule:nonzero;stroke:none;stroke-width:0.24856693"
       inkscape:connector-curvature="0"
       inkscape:export-xdpi="25.4"
       inkscape:export-ydpi="25.4" />
    <path
       id="path826-8"
       d="m 528.20093,167.00204 c 3.57939,7.73528 0.57667,17.37963 -6.72125,21.55551 -7.27793,4.17589 -16.10694,1.31245 -19.70617,-6.42294 -3.5794,-7.7353 -0.57666,-17.37963 6.70128,-21.55557 7.29788,-4.17588 16.12688,-1.31237 19.72614,6.423 z"
       style="fill:#941f57;fill-opacity:1;fill-rule:nonzero;stroke:none;stroke-width:0.24856693"
       inkscape:connector-curvature="0"
       inkscape:export-xdpi="25.4"
       inkscape:export-ydpi="25.4" />
    <path
       id="path828-1"
       d="m 521.04223,138.34741 c 3.57932,7.57626 0.59658,17.04162 -6.68151,21.13797 -7.25801,4.09633 -16.04726,1.27265 -19.62659,-6.30363 -3.57939,-7.57629 -0.5966,-17.04161 6.68143,-21.13797 7.25807,-4.09637 16.04737,-1.27263 19.62667,6.30363 z"
       style="fill:#941f57;fill-opacity:1;fill-rule:nonzero;stroke:none;stroke-width:0.24856693"
       inkscape:connector-curvature="0"
       inkscape:export-xdpi="25.4"
       inkscape:export-ydpi="25.4" />
    <path
       id="path830-4"
       d="m 551.10865,156.62193 c -2.46576,8.13305 -11.03623,13.46227 -19.12955,11.93106 -8.09333,-1.53112 -12.68676,-9.36591 -10.22098,-17.49897 2.46574,-8.11319 11.01641,-13.46222 19.1296,-11.91121 8.09327,1.53113 12.66685,9.36595 10.22093,17.47912 z"
       style="fill:#941f57;fill-opacity:1;fill-rule:nonzero;stroke:none;stroke-width:0.24856693"
       inkscape:connector-curvature="0"
       inkscape:export-xdpi="25.4"
       inkscape:export-ydpi="25.4" />
    <path
       id="path832-1"
       d="m 489.60376,192.11701 c 3.44013,7.39722 0.55677,16.64386 -6.42292,20.64083 -6.99963,3.99694 -15.45081,1.25275 -18.91088,-6.16443 -3.44013,-7.39727 -0.55678,-16.64395 6.44286,-20.64086 6.97969,-4.01678 15.4508,-1.25276 18.89094,6.16446 z"
       style="fill:#941f57;fill-opacity:1;fill-rule:nonzero;stroke:none;stroke-width:0.24856693"
       inkscape:connector-curvature="0"
       inkscape:export-xdpi="25.4"
       inkscape:export-ydpi="25.4" />
    <path
       id="path834-0"
       d="m 523.36884,196.80988 c 2.40611,8.21258 -1.98856,17.30016 -9.76366,20.32269 -7.79501,3.00267 -16.04738,-1.19306 -18.45346,-9.38579 -2.38621,-8.2126 1.98855,-17.30013 9.78352,-20.32272 7.79496,-3.00259 16.04731,1.19316 18.4336,9.38582 z"
       style="fill:#941f57;fill-opacity:1;fill-rule:nonzero;stroke:none;stroke-width:0.24856693"
       inkscape:connector-curvature="0"
       inkscape:export-xdpi="25.4"
       inkscape:export-ydpi="25.4" />
    <path
       id="path836-4"
       d="m 493.46148,209.6557 c 7.87452,3.18169 12.42823,12.18969 10.16134,20.12381 -2.2669,7.93426 -10.47951,11.79193 -18.35408,8.61037 -7.87453,-3.18165 -12.40835,-12.18969 -10.14143,-20.12389 2.2669,-7.93414 10.47948,-11.79186 18.33417,-8.61029 z"
       style="fill:#941f57;fill-opacity:1;fill-rule:nonzero;stroke:none;stroke-width:0.24856693"
       inkscape:connector-curvature="0"
       inkscape:export-xdpi="25.4"
       inkscape:export-ydpi="25.4" />
    <path
       id="path838-6"
       d="m 367.00072,265.86512 c -4.77245,-0.0995 -7.67569,-0.0794 -8.57053,-3.10207 -0.63632,-3.87761 -0.29828,-6.74106 7.49671,-7.89444 15.94787,-2.14759 28.49536,-1.09363 27.85903,-22.35092 l -0.11935,-58.56196 28.61477,-0.19881 -0.11941,58.56196 c -0.6363,21.25722 11.93114,20.22318 27.87908,22.35091 7.77512,1.15337 8.11315,4.01678 7.49671,7.9143 -0.91466,3.00264 -3.79808,3.00264 -8.57052,3.10212 l -81.96661,0.17903 M 448.96719,81.847283 c 4.77246,0.08 7.65583,0.08 8.57051,3.10212 0.61646,3.87764 0.2784,6.74115 -7.49671,7.89449 -15.94793,2.14758 -28.51543,1.09374 -27.8791,22.351077 l 0.11942,58.56195 -28.61479,0.19881 0.11934,-58.56193 c 0.6363,-21.257367 -11.91119,-20.223327 -27.85903,-22.351047 -7.79501,-1.15337 -8.13305,-4.01688 -7.49673,-7.91433 0.89484,-3.00272 3.79808,-3.00272 8.57053,-3.10216 z"
       style="fill:#640125;fill-opacity:1;fill-rule:nonzero;stroke:none;stroke-width:0.24856693"
       inkscape:connector-curvature="0"
       inkscape:export-xdpi="25.4"
       inkscape:export-ydpi="25.4" />
    <path
       id="path840-0"
       d="m 551.17503,217.61965 c 6.9002,4.95138 9.20684,14.77477 5.13041,21.95325 -4.05664,7.1786 -12.94533,8.98811 -19.84546,4.0566 -6.9002,-4.95145 -9.20687,-14.77473 -5.15034,-21.95326 4.05661,-7.17854 12.94534,-8.98814 19.86539,-4.05659 z"
       style="fill:#941f57;fill-opacity:1;fill-rule:nonzero;stroke:none;stroke-width:0.24856693"
       inkscape:connector-curvature="0"
       inkscape:export-xdpi="25.4"
       inkscape:export-ydpi="25.4" />
    <path
       id="path844-2"
       d="m 543.09813,256.41014 c 3.4401,7.39735 0.55676,16.64395 -6.44282,20.66072 -6.97969,3.99699 -15.4508,1.2329 -18.89101,-6.16438 -3.44009,-7.41718 -0.55675,-16.66379 6.42299,-20.66071 6.99961,-3.99694 15.47066,-1.23286 18.91084,6.16437 z"
       style="fill:#941f57;fill-opacity:1;fill-rule:nonzero;stroke:none;stroke-width:0.24856693"
       inkscape:connector-curvature="0"
       inkscape:export-xdpi="25.4"
       inkscape:export-ydpi="25.4" />
    <path
       id="path846-0"
       d="m 358.43019,262.76305 c -2.46576,8.13308 -11.03629,13.46233 -19.12957,11.93118 -8.11317,-1.53118 -12.68673,-9.36593 -10.22097,-17.49901 2.46571,-8.13303 11.01639,-13.46231 19.12954,-11.93111 8.09326,1.55106 12.66688,9.38578 10.221,17.49894 z"
       style="fill:#941f57;fill-opacity:1;fill-rule:nonzero;stroke:none;stroke-width:0.24856693"
       inkscape:connector-curvature="0"
       inkscape:export-xdpi="25.4"
       inkscape:export-ydpi="25.4" />
    <path
       id="path848-1"
       d="m 505.55166,120.45073 c -16.34565,15.25191 -37.46372,11.79191 -44.84111,-0.6364 -7.53648,-15.5303 1.0738,-28.137497 11.73228,-30.185657 11.97086,-1.84932 20.22324,5.15025 19.42783,11.911207 0.179,9.48525 -5.40878,16.06727 -13.30321,15.96779 -6.04506,0.0994 -8.61029,-6.02518 -7.73535,-9.94253 1.15338,-3.04247 1.41188,-3.77819 3.51969,-4.79233 0.99427,0.91468 -1.15334,-0.65625 -2.26691,4.71275 -0.15904,7.87454 5.70706,7.05922 7.49671,6.58205 8.96822,-3.06235 9.22673,-11.37436 7.07913,-14.715097 -3.53953,-5.98543 -13.91964,-6.52232 -18.35407,-0.0596 -5.70703,7.874577 -5.54791,12.368627 -0.75562,20.521597 6.60192,8.11309 13.50208,8.39153 19.30853,7.31773 5.56789,-0.81533 12.07036,-4.05655 17.99615,-7.19845 1.59081,-0.91474 1.37205,-0.23862 0.69595,0.51701 z"
       style="fill:#941f57;fill-opacity:1;fill-rule:nonzero;stroke:none;stroke-width:0.24856693"
       inkscape:connector-curvature="0"
       inkscape:export-xdpi="25.4"
       inkscape:export-ydpi="25.4" />
    <path
       id="path850-4"
       d="m 388.3225,225.38123 c -2.46577,8.13308 -11.01641,13.46227 -19.12957,11.93115 -8.09327,-1.55108 -12.66687,-9.38582 -10.22099,-17.499 2.46575,-8.13302 11.03629,-13.46228 19.12957,-11.93112 8.11317,1.55107 12.68675,9.36594 10.22099,17.49897 z"
       style="fill:#941f57;fill-opacity:1;fill-rule:nonzero;stroke:none;stroke-width:0.24856693"
       inkscape:connector-curvature="0"
       inkscape:export-xdpi="25.4"
       inkscape:export-ydpi="25.4" />
    <path
       id="path852-4"
       d="m 511.53709,116.73222 9.22676,-10.3006 c 0,0 16.06725,1.59085 19.88525,-1.23287 0.35784,-0.0998 -18.19502,-1.07377 -18.19502,-1.07377 l 13.40264,-11.712377 4.79238,-1.15335 -3.818,-1.07379 -2.04815,-6.84052 -1.41185,6.93989 -13.86004,12.328837 -5.66724,-13.402607 c 0.4375,6.0451 0.6164,8.96821 4.07642,15.888237 l -7.69552,10.49944 c -14.83443,-3.34079 -14.71509,-12.82593 -13.36294,-22.112347 2.24708,-0.0797 4.63335,0.41758 6.46276,1.4516 -1.03403,-14.5162 7.31772,-21.43627 15.13268,-25.53261 1.86918,1.61068 3.53954,4.63325 4.35481,8.88871 11.97092,-6.56214 22.37088,-3.73845 28.3165,-2.3067 0.35792,4.53382 0.51703,15.70931 -6.30357,24.677517 6.74106,-0.55676 8.05352,0.21875 9.76358,0.9744 -0.6164,5.5082 -7.39727,21.67488 -17.06139,23.80263 -1.19319,-1.59087 -3.85781,-1.45169 -3.51972,1.8692 -2.00847,-0.53692 -7.27805,3.53953 -8.9086,3.97702 -8.7296,-3.69858 -11.1357,-7.31777 -13.56174,-14.55594 z"
       style="fill:#941f57;fill-opacity:1;fill-rule:nonzero;stroke:#000000;stroke-width:0.23862243px;stroke-linecap:butt;stroke-linejoin:miter;stroke-miterlimit:4;stroke-dasharray:none;stroke-opacity:1"
       inkscape:connector-curvature="0"
       inkscape:export-xdpi="25.4"
       inkscape:export-ydpi="25.4" />
  </g>
</svg>
