<?xml version="1.0" encoding="UTF-8" standalone="no"?>
<!-- Created with Inkscape (http://www.inkscape.org/) -->

<svg
   xmlns:dc="http://purl.org/dc/elements/1.1/"
   xmlns:cc="http://creativecommons.org/ns#"
   xmlns:rdf="http://www.w3.org/1999/02/22-rdf-syntax-ns#"
   xmlns:svg="http://www.w3.org/2000/svg"
   xmlns="http://www.w3.org/2000/svg"
   xmlns:sodipodi="http://sodipodi.sourceforge.net/DTD/sodipodi-0.dtd"
   xmlns:inkscape="http://www.inkscape.org/namespaces/inkscape"
   width="1410mm"
   height="230mm"
   viewBox="0 0 1410 230"
   version="1.1"
   id="svg8"
   inkscape:version="0.92.4 (5da689c313, 2019-01-14)"
   sodipodi:docname="CL_KIITA_Logo3.svg"
   inkscape:export-filename="D:\ResDev\_Orgs\CL-GDAL\CL_KIITA\ident\CL_KIITA_Logo3.png"
   inkscape:export-xdpi="25.4"
   inkscape:export-ydpi="25.4">
  <defs
     id="defs2">
    <pattern
       y="0"
       x="0"
       height="6"
       width="6"
       patternUnits="userSpaceOnUse"
       id="EMFhbasepattern" />
  </defs>
  <sodipodi:namedview
     id="base"
     pagecolor="#ffffff"
     bordercolor="#666666"
     borderopacity="1.0"
     inkscape:pageopacity="0.0"
     inkscape:pageshadow="2"
     inkscape:zoom="0.087500001"
     inkscape:cx="1161.3319"
     inkscape:cy="-1275.5647"
     inkscape:document-units="mm"
     inkscape:current-layer="layer1"
     showgrid="false"
     inkscape:window-width="1503"
     inkscape:window-height="1251"
     inkscape:window-x="89"
     inkscape:window-y="71"
     inkscape:window-maximized="1" />
  <metadata
     id="metadata5">
    <rdf:RDF>
      <cc:Work
         rdf:about="">
        <dc:format>image/svg+xml</dc:format>
        <dc:type
           rdf:resource="http://purl.org/dc/dcmitype/StillImage" />
        <dc:title></dc:title>
      </cc:Work>
    </rdf:RDF>
  </metadata>
  <g
     inkscape:label="レイヤー 1"
     inkscape:groupmode="layer"
     id="layer1"
     transform="translate(0,-67)">
    <path
       id="path818"
       d="m 137.48661,126.40661 c 3.63098,2.59505 4.84479,7.76423 2.71015,11.54171 -2.13463,3.77746 -6.812,4.74014 -10.45344,2.13463 -3.63098,-2.59507 -4.84479,-7.76422 -2.71015,-11.54171 2.1451,-3.77743 6.82246,-4.72968 10.45344,-2.13463 z"
       style="fill:#941f57;fill-opacity:1;fill-rule:nonzero;stroke:none;stroke-width:0.13079983"
       inkscape:connector-curvature="0"
       inkscape:export-xdpi="25.4"
       inkscape:export-ydpi="25.4" />
    <path
       id="path820"
       d="m 155.91356,128.93888 c 1.36031,4.21695 -0.72201,8.97806 -4.65645,10.63134 -3.93443,1.65329 -8.22463,-0.41856 -9.5954,-4.646 -1.36031,-4.21694 0.72201,-8.97803 4.65644,-10.63132 3.93443,-1.65328 8.2351,0.41856 9.59541,4.64598 z"
       style="fill:#941f57;fill-opacity:1;fill-rule:nonzero;stroke:none;stroke-width:0.13079983"
       inkscape:connector-curvature="0"
       inkscape:export-xdpi="25.4"
       inkscape:export-ydpi="25.4" />
    <path
       id="path822"
       d="m 147.96098,145.33581 c 0.6383,4.41581 -2.24974,8.8734 -6.45623,9.95121 -4.20649,1.07779 -8.13046,-1.63237 -8.77922,-6.05863 -0.6383,-4.41574 2.24974,-8.87339 6.45623,-9.95115 4.19603,-1.07779 8.13046,1.63236 8.77922,6.05857 z"
       style="fill:#941f57;fill-opacity:1;fill-rule:nonzero;stroke:none;stroke-width:0.13079983"
       inkscape:connector-curvature="0"
       inkscape:export-xdpi="25.4"
       inkscape:export-ydpi="25.4" />
    <path
       id="path824"
       d="m 161.97216,142.74079 c 1.84164,4.07044 0.30344,9.14544 -3.44264,11.35334 -3.7356,2.19744 -8.26648,0.68015 -10.10812,-3.39031 -1.84165,-4.07045 -0.30346,-9.15589 3.44262,-11.35336 3.73562,-2.19739 8.2665,-0.68013 10.10814,3.39033 z"
       style="fill:#941f57;fill-opacity:1;fill-rule:nonzero;stroke:none;stroke-width:0.13079983"
       inkscape:connector-curvature="0"
       inkscape:export-xdpi="25.4"
       inkscape:export-ydpi="25.4" />
    <path
       id="path826"
       d="m 174.17307,142.96055 c 1.88353,4.07044 0.30345,9.14543 -3.53682,11.34286 -3.82978,2.19741 -8.47573,0.69061 -10.3697,-3.37985 -1.88353,-4.07045 -0.30345,-9.14545 3.52633,-11.34288 3.84026,-2.19742 8.48623,-0.69061 10.38019,3.37987 z"
       style="fill:#941f57;fill-opacity:1;fill-rule:nonzero;stroke:none;stroke-width:0.13079983"
       inkscape:connector-curvature="0"
       inkscape:export-xdpi="25.4"
       inkscape:export-ydpi="25.4" />
    <path
       id="path828"
       d="m 170.40606,127.88204 c 1.88351,3.98674 0.31393,8.96757 -3.5159,11.12312 -3.81931,2.15557 -8.44434,0.66969 -10.32784,-3.31705 -1.88351,-3.98675 -0.31393,-8.96758 3.51586,-11.12314 3.81932,-2.15557 8.44439,-0.66968 10.32788,3.31707 z"
       style="fill:#941f57;fill-opacity:1;fill-rule:nonzero;stroke:none;stroke-width:0.13079983"
       inkscape:connector-curvature="0"
       inkscape:export-xdpi="25.4"
       inkscape:export-ydpi="25.4" />
    <path
       id="path830"
       d="m 186.22749,137.49837 c -1.29752,4.27974 -5.80745,7.08407 -10.06628,6.27833 -4.25884,-0.80571 -6.67597,-4.92848 -5.37845,-9.20824 1.29753,-4.26928 5.79701,-7.08404 10.0663,-6.26787 4.2588,0.80572 6.6655,4.92851 5.37843,9.19778 z"
       style="fill:#941f57;fill-opacity:1;fill-rule:nonzero;stroke:none;stroke-width:0.13079983"
       inkscape:connector-curvature="0"
       inkscape:export-xdpi="25.4"
       inkscape:export-ydpi="25.4" />
    <path
       id="path832"
       d="m 153.86263,156.17645 c 1.81026,3.89254 0.29299,8.75826 -3.37984,10.86152 -3.6833,2.10325 -8.13046,0.65923 -9.95118,-3.24381 -1.81026,-3.89255 -0.29299,-8.75829 3.39031,-10.86155 3.67283,-2.1137 8.13045,-0.65921 9.94071,3.24384 z"
       style="fill:#941f57;fill-opacity:1;fill-rule:nonzero;stroke:none;stroke-width:0.13079983"
       inkscape:connector-curvature="0"
       inkscape:export-xdpi="25.4"
       inkscape:export-ydpi="25.4" />
    <path
       id="path834"
       d="m 171.63037,158.64591 c 1.26611,4.32159 -1.04642,9.10362 -5.1378,10.69413 -4.10187,1.58004 -8.44438,-0.62782 -9.71052,-4.93897 -1.25566,-4.32158 1.0464,-9.10358 5.14826,-10.69413 4.10184,-1.58002 8.44435,0.62786 9.70006,4.93897 z"
       style="fill:#941f57;fill-opacity:1;fill-rule:nonzero;stroke:none;stroke-width:0.13079983"
       inkscape:connector-curvature="0"
       inkscape:export-xdpi="25.4"
       inkscape:export-ydpi="25.4" />
    <path
       id="path836"
       d="m 155.89263,165.4056 c 4.14371,1.67425 6.53992,6.4144 5.34704,10.58945 -1.19287,4.17514 -5.51447,6.20512 -9.65817,4.53091 -4.14371,-1.67423 -6.52949,-6.41441 -5.3366,-10.5895 1.19289,-4.17508 5.51448,-6.20508 9.64773,-4.53086 z"
       style="fill:#941f57;fill-opacity:1;fill-rule:nonzero;stroke:none;stroke-width:0.13079983"
       inkscape:connector-curvature="0"
       inkscape:export-xdpi="25.4"
       inkscape:export-ydpi="25.4" />
    <path
       id="path838"
       d="m 133.16502,283.39663 c -2.51134,-0.0524 -4.03907,-0.0419 -4.50995,-1.63237 -0.33484,-2.04045 -0.15696,-3.54725 3.94489,-4.15417 8.39206,-1.13009 14.99479,-0.57549 14.65994,-11.7614 l -0.0628,-30.81623 15.05757,-0.10463 -0.0628,30.81623 c -0.33484,11.18589 6.27835,10.64177 14.6704,11.76141 4.0914,0.60692 4.26926,2.1137 3.94489,4.16464 -0.48132,1.58003 -1.9986,1.58003 -4.50994,1.63237 l -43.13223,0.0942 m 43.1322,-96.83305 c 2.51135,0.042 4.02862,0.042 4.50994,1.63238 0.32438,2.04045 0.1465,3.54726 -3.94489,4.15417 -8.39205,1.13009 -15.00526,0.57553 -14.67041,11.76143 l 0.0628,30.81622 -15.05757,0.10463 0.0628,-30.8162 c 0.33485,-11.18593 -6.26788,-10.6418 -14.65993,-11.76143 -4.10186,-0.60692 -4.27974,-2.11373 -3.9449,-4.16462 0.47088,-1.58007 1.99861,-1.58007 4.50995,-1.63241 z"
       style="fill:#640125;fill-opacity:1;fill-rule:nonzero;stroke:none;stroke-width:0.13079983"
       inkscape:connector-curvature="0"
       inkscape:export-xdpi="25.4"
       inkscape:export-ydpi="25.4" />
    <path
       id="path840"
       d="m 184.12424,172.80359 c 3.631,2.60549 4.84481,7.7747 2.69972,11.55214 -2.13466,3.77749 -6.81204,4.7297 -10.44298,2.13464 -3.63101,-2.60552 -4.84481,-7.77469 -2.7102,-11.55213 2.13465,-3.77747 6.81204,-4.72971 10.45346,-2.13465 z"
       style="fill:#941f57;fill-opacity:1;fill-rule:nonzero;stroke:none;stroke-width:0.13079983"
       inkscape:connector-curvature="0"
       inkscape:export-xdpi="25.4"
       inkscape:export-ydpi="25.4" />
    <path
       id="path842"
       d="m 207.01928,199.18312 c 1.84165,4.07044 0.30347,9.14545 -3.43216,11.35333 -3.74607,2.19742 -8.27695,0.68016 -10.11859,-3.39031 -1.84166,-4.07047 -0.30348,-9.15593 3.44261,-11.35332 3.7461,-2.19743 8.26651,-0.68017 10.10814,3.3903 z"
       style="fill:#941f57;fill-opacity:1;fill-rule:nonzero;stroke:none;stroke-width:0.13079983"
       inkscape:connector-curvature="0"
       inkscape:export-xdpi="25.4"
       inkscape:export-ydpi="25.4" />
    <path
       id="path844"
       d="m 187.35759,214.06276 c 1.81026,3.8926 0.29299,8.75832 -3.39029,10.87203 -3.67282,2.10326 -8.13046,0.64877 -9.94074,-3.24383 -1.81023,-3.90303 -0.29296,-8.76874 3.37987,-10.87199 3.6833,-2.10324 8.1409,-0.64874 9.95116,3.24379 z"
       style="fill:#941f57;fill-opacity:1;fill-rule:nonzero;stroke:none;stroke-width:0.13079983"
       inkscape:connector-curvature="0"
       inkscape:export-xdpi="25.4"
       inkscape:export-ydpi="25.4" />
    <path
       id="path846"
       d="m 200.57351,245.18243 c -1.29752,4.27975 -5.80747,7.08409 -10.06628,6.27837 -4.26928,-0.80573 -6.67596,-4.9285 -5.37844,-9.20823 1.2975,-4.27974 5.797,-7.08409 10.06627,-6.27834 4.2588,0.81618 6.66551,4.93893 5.37845,9.2082 z"
       style="fill:#941f57;fill-opacity:1;fill-rule:nonzero;stroke:none;stroke-width:0.13079983"
       inkscape:connector-curvature="0"
       inkscape:export-xdpi="25.4"
       inkscape:export-ydpi="25.4" />
    <path
       id="path848"
       d="m 162.25468,118.46451 c -8.60133,8.02582 -19.714,6.2051 -23.59611,-0.33485 -3.96582,-8.17231 0.56505,-14.80642 6.17371,-15.8842 6.29927,-0.97315 10.64179,2.71015 10.22323,6.26787 0.0942,4.9913 -2.84618,8.45485 -7.00035,8.40252 -3.18103,0.0523 -4.53087,-3.17056 -4.07046,-5.23194 0.60691,-1.60099 0.74294,-1.98815 1.85211,-2.5218 0.5232,0.48133 -0.60691,-0.34532 -1.19288,2.47994 -0.0837,4.1437 3.00314,3.71467 3.94489,3.46357 4.71922,-1.61145 4.85525,-5.98537 3.72515,-7.74331 -1.86257,-3.14964 -7.32474,-3.43217 -9.65819,-0.0314 -3.00314,4.14371 -2.91943,6.50856 -0.39763,10.79877 3.47402,4.26926 7.105,4.41576 10.16046,3.85071 2.92989,-0.42903 6.3516,-2.13464 9.46983,-3.78793 0.83712,-0.48135 0.722,-0.12558 0.36624,0.27205 z"
       style="fill:#941f57;fill-opacity:1;fill-rule:nonzero;stroke:none;stroke-width:0.13079983"
       inkscape:connector-curvature="0"
       inkscape:export-xdpi="25.4"
       inkscape:export-ydpi="25.4" />
    <path
       id="path850"
       d="m 134.2428,187.57863 c -1.29753,4.27975 -5.79701,7.08406 -10.06628,6.27835 -4.25881,-0.81618 -6.66551,-4.93897 -5.37845,-9.20825 1.29752,-4.27972 5.80747,-7.08407 10.06628,-6.27835 4.26928,0.8162 6.67597,4.9285 5.37845,9.20825 z"
       style="fill:#941f57;fill-opacity:1;fill-rule:nonzero;stroke:none;stroke-width:0.13079983"
       inkscape:connector-curvature="0"
       inkscape:export-xdpi="25.4"
       inkscape:export-ydpi="25.4" />
    <path
       id="path852"
       d="m 165.40432,116.50777 4.85525,-5.42032 c 0,0 8.45484,0.83712 10.46392,-0.64876 0.18833,-0.0524 -9.57449,-0.56504 -9.57449,-0.56504 l 7.05267,-6.16324 2.52182,-0.60692 -2.00908,-0.56504 -1.07777,-3.599581 -0.74295,3.651891 -7.29336,6.48763 -2.9822,-7.05268 c 0.23022,3.18103 0.32438,4.71923 2.14509,8.36066 l -4.04951,5.52495 c -7.8061,-1.75795 -7.74332,-6.74921 -7.03177,-11.63587 1.18244,-0.0419 2.43812,0.21975 3.40079,0.76387 -0.54413,-7.638635 3.85071,-11.280074 7.96304,-13.435636 0.9836,0.847577 1.86256,2.438092 2.29159,4.67737 6.29928,-3.453091 11.77189,-1.967221 14.90059,-1.213814 0.18834,2.385765 0.27207,8.26646 -3.31705,12.98568 3.54725,-0.29298 4.23789,0.11511 5.13777,0.51274 -0.32436,2.8985 -3.89259,11.40565 -8.97801,12.52531 -0.62785,-0.83713 -2.03002,-0.76388 -1.85213,0.98359 -1.05686,-0.2825 -3.8298,1.86258 -4.68782,2.09278 -4.59366,-1.94627 -5.85981,-3.85071 -7.13639,-7.65957 z"
       style="fill:#941f57;fill-opacity:1;fill-rule:nonzero;stroke:#000000;stroke-width:0.12556691px;stroke-linecap:butt;stroke-linejoin:miter;stroke-miterlimit:4;stroke-dasharray:none;stroke-opacity:1"
       inkscape:connector-curvature="0"
       inkscape:export-xdpi="25.4"
       inkscape:export-ydpi="25.4" />
    <path
       inkscape:connector-curvature="0"
       id="path903"
       d="m 59.137826,192.84191 -1.317707,6.03371 28.800966,-3.60142 -1.183926,-6.11989 z"
       style="fill:#83274e;fill-opacity:1;stroke:none;stroke-width:4.44500732;stroke-linecap:butt;stroke-linejoin:miter;stroke-miterlimit:4;stroke-dasharray:none;stroke-opacity:1"
       sodipodi:nodetypes="ccccc"
       inkscape:export-xdpi="25.4"
       inkscape:export-ydpi="25.4" />
    <path
       inkscape:connector-curvature="0"
       id="path905"
       d="m 52.710311,205.36134 -2.437208,12.21339 42.700562,-5.12024 -2.853329,-11.20878 z"
       style="fill:#83274e;fill-opacity:1;stroke:none;stroke-width:4.44500732;stroke-linecap:butt;stroke-linejoin:miter;stroke-miterlimit:4;stroke-dasharray:none;stroke-opacity:1"
       sodipodi:nodetypes="ccccc"
       inkscape:export-xdpi="25.4"
       inkscape:export-ydpi="25.4" />
    <path
       sodipodi:nodetypes="ccccc"
       inkscape:connector-curvature="0"
       id="path909"
       d="m 44.90933,224.72752 -3.669578,15.79815 59.879078,-7.57628 -3.312966,-15.0997 z"
       style="fill:#83274e;fill-opacity:1;stroke:none;stroke-width:4.44500732;stroke-linecap:butt;stroke-linejoin:miter;stroke-miterlimit:4;stroke-dasharray:none;stroke-opacity:1"
       inkscape:export-xdpi="25.4"
       inkscape:export-ydpi="25.4" />
    <path
       inkscape:connector-curvature="0"
       id="path913"
       d="m 35.0767,248.30831 -4.214543,17.227 79.639453,-10.15969 -3.61214,-16.79403 z"
       style="fill:#83274e;fill-opacity:1;stroke:none;stroke-width:4.44500732;stroke-linecap:butt;stroke-linejoin:miter;stroke-miterlimit:4;stroke-dasharray:none;stroke-opacity:1"
       sodipodi:nodetypes="ccccc"
       inkscape:export-xdpi="25.4"
       inkscape:export-ydpi="25.4" />
    <path
       sodipodi:nodetypes="ccccccc"
       inkscape:connector-curvature="0"
       id="path917"
       d="m 21.501709,274.72542 96.788861,-12.76023 2.68468,13.55183 3.95983,-0.12206 0.0158,7.42764 -103.066658,-0.20336 z"
       style="fill:#83274e;fill-opacity:1;stroke:none;stroke-width:4.44500732;stroke-linecap:butt;stroke-linejoin:miter;stroke-miterlimit:4;stroke-dasharray:none;stroke-opacity:1"
       inkscape:export-xdpi="25.4"
       inkscape:export-ydpi="25.4" />
    <path
       style="fill:#640125;fill-opacity:1;stroke:none;stroke-width:0.56629783;stroke-linecap:butt;stroke-linejoin:miter;stroke-miterlimit:4;stroke-dasharray:none;stroke-opacity:1"
       d="m 99.906579,186.65761 -42.33781,0.0986 c 0.355292,-14.92226 -3.837143,-15.13542 -15.135412,-15.77494 -6.821594,0.63952 -9.8771,-2.70023 -7.247943,-11.44037 0.220656,-0.63913 -0.105588,-0.98047 -0.221057,-1.08708 -3.140826,-2.59688 -3.140826,-5.03382 -0.377307,-6.74215 0.384948,-0.218 0.181977,-0.63454 0.06282,-0.73486 -4.785915,-3.46068 -1.670674,-5.09366 0.01255,-6.42519 2.386675,-2.46203 0.452212,-3.09009 -2.537414,-4.34625 -5.954129,-2.6379 -3.592576,-4.92405 -0.05025,-9.16986 3.140359,-3.46694 5.250683,-5.75314 6.330968,-7.16001 2.060078,-2.11032 0.351723,-5.57729 0.401965,-8.34082 -1.30639,-16.354994 18.590942,-27.157805 26.931745,-28.464197 19.244141,-3.064992 32.559273,3.21573 37.282386,7.938827 13.36546,12.00873 12.71226,25.87656 10.80289,35.67449 l -1.63186,-0.43817 c 1.84352,-9.46019 2.47421,-21.83763 -10.43052,-33.432379 -4.560304,-4.560272 -16.956272,-10.716508 -35.537023,-7.757175 -8.053271,1.261355 -27.080626,12.428004 -25.359115,25.826414 -0.04852,2.66825 1.785012,8.04037 -1.032327,10.16997 -1.043043,1.35841 -3.080618,3.10562 -6.112724,6.45307 -3.420218,4.09938 -5.884424,5.08737 -0.13555,7.63433 4.474101,1.67299 4.455239,3.70589 2.012792,6.10607 -1.694219,1.46968 -3.896795,2.37915 0.402028,5.0073 0.736274,0.55702 0.656152,1.37332 0.0085,1.76784 -2.668253,1.64948 -2.484191,3.22014 0.548363,5.72753 0,0 0.886642,0.80063 0.535545,1.92384 -2.952663,7.19643 -0.554678,9.73083 6.077778,9.38945 10.908786,0.61749 16.245134,1.83565 15.902087,16.24347 h 40.739077 z"
       id="path827-9"
       inkscape:connector-curvature="0"
       sodipodi:nodetypes="ccccccccccccccccccccccccccccccc"
       inkscape:export-xdpi="25.4"
       inkscape:export-ydpi="25.4" />
    <path
       style="fill:#83274e;fill-opacity:1;stroke:none;stroke-width:0.06395464px;stroke-linecap:butt;stroke-linejoin:miter;stroke-opacity:1"
       d="m 90.372739,155.29782 -0.02286,-10.43831 c 0.296935,-5.52753 0.182728,-5.84734 9.273411,-12.10572 v 11.37479 c -0.04559,3.08355 0.291227,2.70096 -5.390448,7.34911 -2.072817,1.66738 -3.106369,2.15269 -3.860117,3.82013 z"
       id="path829"
       inkscape:connector-curvature="0"
       sodipodi:nodetypes="cccccc"
       inkscape:export-xdpi="25.4"
       inkscape:export-ydpi="25.4" />
    <path
       style="fill:#83274e;fill-opacity:1;stroke:none;stroke-width:0.06395464px;stroke-linecap:butt;stroke-linejoin:miter;stroke-opacity:1"
       d="m 92.169505,155.13323 c 5.139213,-2.74091 3.10066,-2.09567 14.338435,-5.84157 6.39548,-2.14707 6.28127,-1.05071 6.25843,-5.34481 v -11.14637 c -6.98991,1.49435 -6.15572,0.25453 -6.2748,5.3125 v 5.36561 c -0.14349,4.12284 0.19911,3.33481 -1.54826,4.05432 -3.19774,1.34189 -4.80533,2.2773 -6.566777,3.28049 -1.783965,0.9869 -1.379626,0.6873 -6.373712,3.96447 -0.554829,0.43973 -0.961144,0.94045 0.166684,0.35536 z"
       id="path831"
       inkscape:connector-curvature="0"
       sodipodi:nodetypes="cccccccccc"
       inkscape:export-xdpi="25.4"
       inkscape:export-ydpi="25.4" />
    <path
       style="fill:#83274e;fill-opacity:1;stroke:none;stroke-width:0.06395464px;stroke-linecap:butt;stroke-linejoin:miter;stroke-opacity:1"
       d="m 108.52484,150.00147 c 3.24855,-0.81999 5.36214,-1.13057 10.14285,-2.09963 5.49135,-0.87214 5.16832,-0.61373 5.20059,-3.29481 v -11.88716 l -5.49133,1.0983 v 10.4012 c 0.11185,3.5353 0.1347,2.73587 -3.93099,3.83226 -2.8923,0.68289 -2.99831,0.67804 -5.93864,1.46181 -0.9354,0.32652 -1.40375,0.77872 0.0178,0.48803 z"
       id="path833"
       inkscape:connector-curvature="0"
       sodipodi:nodetypes="cccccccccc"
       inkscape:export-xdpi="25.4"
       inkscape:export-ydpi="25.4" />
    <path
       style="fill:#83274e;fill-opacity:1;stroke:none;stroke-width:0.06395464px;stroke-linecap:butt;stroke-linejoin:miter;stroke-opacity:1"
       d="m 88.471762,155.42459 0.02286,-10.43831 c -0.296935,-5.52751 -0.182729,-5.84731 -9.273431,-12.1057 v 11.37474 c 0.04565,3.08356 -0.291219,2.701 5.390467,7.34914 2.072814,1.66733 3.10637,2.15273 3.860119,3.82013 z"
       id="path829-2"
       inkscape:connector-curvature="0"
       sodipodi:nodetypes="cccccc"
       inkscape:export-xdpi="25.4"
       inkscape:export-ydpi="25.4" />
    <path
       style="fill:#83274e;fill-opacity:1;stroke:none;stroke-width:0.06395464px;stroke-linecap:butt;stroke-linejoin:miter;stroke-opacity:1"
       d="m 86.675,155.25999 c -5.139215,-2.74092 -3.100661,-2.09565 -14.3384,-5.84161 -6.395461,-2.14704 -6.28126,-1.05066 -6.258414,-5.34477 v -11.14638 c 6.989877,1.49439 6.155729,0.25455 6.274807,5.3125 v 5.36564 c 0.143493,4.12279 -0.199118,3.33478 1.548206,4.05429 3.19773,1.3419 4.805321,2.27732 6.56677,3.28056 1.783965,0.9868 1.379631,0.68725 6.373711,3.96441 0.554831,0.43971 0.961146,0.94043 -0.16668,0.35536 z"
       id="path831-1"
       inkscape:connector-curvature="0"
       sodipodi:nodetypes="cccccccccc"
       inkscape:export-xdpi="25.4"
       inkscape:export-ydpi="25.4" />
    <path
       style="fill:#83274e;fill-opacity:1;stroke:none;stroke-width:0.06395464px;stroke-linecap:butt;stroke-linejoin:miter;stroke-opacity:1"
       d="m 70.319702,150.12822 c -3.248565,-0.81997 -5.362132,-1.13055 -10.142826,-2.09961 -5.49134,-0.87217 -5.168317,-0.61378 -5.200621,-3.29486 v -11.88711 l 5.491341,1.09827 v 10.40127 c -0.111848,3.53528 -0.134689,2.73585 3.931003,3.83222 2.892292,0.6829 2.998298,0.67802 5.938647,1.46178 0.935364,0.32654 1.403743,0.77875 -0.01753,0.48804 z"
       id="path833-9"
       inkscape:connector-curvature="0"
       sodipodi:nodetypes="cccccccccc"
       inkscape:export-xdpi="25.4"
       inkscape:export-ydpi="25.4" />
    <path
       style="opacity:1;fill:#f3b14f;fill-opacity:1;stroke:none;stroke-width:0.14857544;stroke-linecap:round;stroke-linejoin:round;stroke-miterlimit:4;stroke-dasharray:none;stroke-dashoffset:53.70708847;stroke-opacity:1;paint-order:normal"
       d="m 59.440941,173.14372 v 1.94993 h 57.536429 7.08737 v -1.94993 h -7.08737 z"
       id="rect817-11-3-9"
       inkscape:connector-curvature="0"
       inkscape:export-xdpi="25.4"
       inkscape:export-ydpi="25.4" />
    <path
       style="opacity:1;fill:#f3b14f;fill-opacity:1;stroke:none;stroke-width:0.1843805;stroke-linecap:round;stroke-linejoin:round;stroke-miterlimit:4;stroke-dasharray:none;stroke-dashoffset:53.70708847;stroke-opacity:1;paint-order:normal"
       d="m 60.508619,178.51738 v 1.94992 h 40.709131 10.91501 v -1.94992 h -10.91501 z"
       id="rect817-11-3-9-9"
       inkscape:connector-curvature="0"
       inkscape:export-xdpi="25.4"
       inkscape:export-ydpi="25.4" />
    <path
       style="opacity:1;fill:#f3b14f;fill-opacity:1;stroke:none;stroke-width:0.1667131;stroke-linecap:round;stroke-linejoin:round;stroke-miterlimit:4;stroke-dasharray:none;stroke-dashoffset:53.70708847;stroke-opacity:1;paint-order:normal"
       d="m 55.659111,167.8643 v 1.94993 h 59.628739 8.92335 v -1.94993 h -8.92335 z"
       id="rect817-11-3-9-0"
       inkscape:connector-curvature="0"
       inkscape:export-xdpi="25.4"
       inkscape:export-ydpi="25.4" />
    <path
       style="opacity:1;fill:#f3b14f;fill-opacity:1;stroke:none;stroke-width:0.37438232;stroke-linecap:round;stroke-linejoin:round;stroke-miterlimit:4;stroke-dasharray:none;stroke-dashoffset:53.70708847;stroke-opacity:1;paint-order:normal"
       d="m 55.643349,157.7131 v 1.94971 H 100.6447 123.90967 V 157.7131 H 100.6447 Z"
       id="rect817"
       inkscape:connector-curvature="0"
       inkscape:export-xdpi="25.4"
       inkscape:export-ydpi="25.4" />
    <path
       style="opacity:1;fill:#f3b14f;fill-opacity:1;stroke:none;stroke-width:0.3885318;stroke-linecap:round;stroke-linejoin:round;stroke-miterlimit:4;stroke-dasharray:none;stroke-dashoffset:53.70708847;stroke-opacity:1;paint-order:normal"
       d="m 55.651231,162.58742 v 1.94971 h 48.467299 19.94196 v -1.94971 h -19.94196 z"
       id="rect817-11"
       inkscape:connector-curvature="0"
       inkscape:export-xdpi="25.4"
       inkscape:export-ydpi="25.4" />
    <path
       style="opacity:1;fill:#640125;fill-opacity:1;stroke:#442222;stroke-width:0.11610812;stroke-linecap:round;stroke-linejoin:round;stroke-miterlimit:4;stroke-dasharray:none;stroke-dashoffset:53.70708847;stroke-opacity:1;paint-order:normal"
       d="m 56.808396,157.35109 h 9.140777 v 13.4459 h -9.140777 z"
       id="rect815"
       inkscape:connector-curvature="0"
       inkscape:export-xdpi="25.4"
       inkscape:export-ydpi="25.4" />
    <path
       style="opacity:1;fill:#640125;fill-opacity:1;stroke:#442222;stroke-width:0.12506829;stroke-linecap:round;stroke-linejoin:round;stroke-miterlimit:4;stroke-dasharray:none;stroke-dashoffset:53.70708847;stroke-opacity:1;paint-order:normal"
       d="m 74.321612,166.60819 h 9.13182 v 15.61653 h -9.13182 z"
       id="rect815-8"
       inkscape:connector-curvature="0"
       inkscape:export-xdpi="25.4"
       inkscape:export-ydpi="25.4" />
    <path
       style="opacity:1;fill:#640125;fill-opacity:1;stroke:#442222;stroke-width:0.13693549;stroke-linecap:round;stroke-linejoin:round;stroke-miterlimit:4;stroke-dasharray:none;stroke-dashoffset:53.70708847;stroke-opacity:1;paint-order:normal"
       d="m 87.730188,157.19762 h 9.122017 v 18.74086 h -9.122017 z"
       id="rect815-8-5"
       inkscape:connector-curvature="0"
       inkscape:export-xdpi="25.4"
       inkscape:export-ydpi="25.4" />
    <path
       style="opacity:1;fill:#640125;fill-opacity:1;stroke:#442222;stroke-width:0.06214342;stroke-linecap:round;stroke-linejoin:round;stroke-miterlimit:4;stroke-dasharray:none;stroke-dashoffset:53.70708847;stroke-opacity:1;paint-order:normal"
       d="m 67.251436,166.45603 h 3.836191 v 9.17773 h -3.836191 z"
       id="rect815-8-4"
       inkscape:connector-curvature="0"
       inkscape:export-xdpi="25.4"
       inkscape:export-ydpi="25.4" />
    <path
       style="opacity:1;fill:#640125;fill-opacity:1;stroke:#442222;stroke-width:0.12197591;stroke-linecap:round;stroke-linejoin:round;stroke-miterlimit:4;stroke-dasharray:none;stroke-dashoffset:53.70708847;stroke-opacity:1;paint-order:normal"
       d="m 107.0043,162.02695 h 9.13488 v 14.84879 h -9.13488 z"
       id="rect815-8-48"
       inkscape:connector-curvature="0"
       inkscape:export-xdpi="25.4"
       inkscape:export-ydpi="25.4" />
    <path
       style="opacity:1;fill:#640125;fill-opacity:1;stroke:#442222;stroke-width:0.05326214;stroke-linecap:round;stroke-linejoin:round;stroke-miterlimit:4;stroke-dasharray:none;stroke-dashoffset:53.70708847;stroke-opacity:1;paint-order:normal"
       d="m 99.292086,166.37769 h 5.202604 v 4.97125 h -5.202604 z"
       id="rect815-8-45"
       inkscape:connector-curvature="0"
       inkscape:export-xdpi="25.4"
       inkscape:export-ydpi="25.4" />
    <flowRoot
       xml:space="preserve"
       id="flowRoot1597"
       style="font-style:normal;font-variant:normal;font-weight:normal;font-stretch:normal;font-size:933.33337402px;line-height:1.25;font-family:'Century Schoolbook';-inkscape-font-specification:'Century Schoolbook, Normal';font-variant-ligatures:normal;font-variant-caps:normal;font-variant-numeric:normal;font-feature-settings:normal;text-align:start;letter-spacing:0px;word-spacing:0px;writing-mode:lr-tb;text-anchor:start;fill:#83274e;fill-opacity:1;stroke:none"
       transform="matrix(0.26458333,0,0,0.26458333,3.1320213,21.861445)"><flowRegion
         id="flowRegion1599"
         style="font-style:normal;font-variant:normal;font-weight:normal;font-stretch:normal;font-size:933.33337402px;font-family:'Century Schoolbook';-inkscape-font-specification:'Century Schoolbook, Normal';font-variant-ligatures:normal;font-variant-caps:normal;font-variant-numeric:normal;font-feature-settings:normal;text-align:start;writing-mode:lr-tb;text-anchor:start;fill:#83274e;fill-opacity:1"><rect
           id="rect1601"
           width="4612.3564"
           height="1084.9038"
           x="828.32507"
           y="118.91891"
           style="font-style:normal;font-variant:normal;font-weight:normal;font-stretch:normal;font-size:933.33337402px;font-family:'Century Schoolbook';-inkscape-font-specification:'Century Schoolbook, Normal';font-variant-ligatures:normal;font-variant-caps:normal;font-variant-numeric:normal;font-feature-settings:normal;text-align:start;writing-mode:lr-tb;text-anchor:start;fill:#83274e;fill-opacity:1" /></flowRegion><flowPara
         id="flowPara1603"
         style="font-size:933.33337402px;fill:#83274e;fill-opacity:1">CL-KIITA</flowPara></flowRoot>  </g>
</svg>
