<?xml version="1.0" encoding="UTF-8" standalone="no"?>
<!-- Created with Inkscape (http://www.inkscape.org/) -->

<svg
   xmlns:dc="http://purl.org/dc/elements/1.1/"
   xmlns:cc="http://creativecommons.org/ns#"
   xmlns:rdf="http://www.w3.org/1999/02/22-rdf-syntax-ns#"
   xmlns:svg="http://www.w3.org/2000/svg"
   xmlns="http://www.w3.org/2000/svg"
   xmlns:sodipodi="http://sodipodi.sourceforge.net/DTD/sodipodi-0.dtd"
   xmlns:inkscape="http://www.inkscape.org/namespaces/inkscape"
   width="1410mm"
   height="230mm"
   viewBox="0 0 1410 230"
   version="1.1"
   id="svg8"
   inkscape:version="0.92.4 (5da689c313, 2019-01-14)"
   sodipodi:docname="CL_KIITA_Logo4.svg"
   inkscape:export-filename="D:\ResDev\_Orgs\CL-GDAL\CL_KIITA\ident\CL_KIITA_Logo4.png"
   inkscape:export-xdpi="25.4"
   inkscape:export-ydpi="25.4">
  <defs
     id="defs2">
    <pattern
       y="0"
       x="0"
       height="6"
       width="6"
       patternUnits="userSpaceOnUse"
       id="EMFhbasepattern" />
  </defs>
  <sodipodi:namedview
     id="base"
     pagecolor="#ffffff"
     bordercolor="#666666"
     borderopacity="1.0"
     inkscape:pageopacity="0.0"
     inkscape:pageshadow="2"
     inkscape:zoom="0.04375"
     inkscape:cx="-2344.4602"
     inkscape:cy="5812.1325"
     inkscape:document-units="mm"
     inkscape:current-layer="layer1"
     showgrid="false"
     inkscape:window-width="1842"
     inkscape:window-height="1051"
     inkscape:window-x="1669"
     inkscape:window-y="-9"
     inkscape:window-maximized="1" />
  <metadata
     id="metadata5">
    <rdf:RDF>
      <cc:Work
         rdf:about="">
        <dc:format>image/svg+xml</dc:format>
        <dc:type
           rdf:resource="http://purl.org/dc/dcmitype/StillImage" />
        <dc:title></dc:title>
      </cc:Work>
    </rdf:RDF>
  </metadata>
  <g
     inkscape:label="レイヤー 1"
     inkscape:groupmode="layer"
     id="layer1"
     transform="translate(0,-67)">
    <flowRoot
       xml:space="preserve"
       id="flowRoot1597"
       style="font-style:normal;font-variant:normal;font-weight:normal;font-stretch:normal;font-size:933.33337402px;line-height:1.25;font-family:'Century Schoolbook';-inkscape-font-specification:'Century Schoolbook, Normal';font-variant-ligatures:normal;font-variant-caps:normal;font-variant-numeric:normal;font-feature-settings:normal;text-align:start;letter-spacing:0px;word-spacing:0px;writing-mode:lr-tb;text-anchor:start;fill:#83274e;fill-opacity:1;stroke:none"
       transform="matrix(0.26458333,0,0,0.26458333,3.1320213,21.861445)"><flowRegion
         id="flowRegion1599"
         style="font-style:normal;font-variant:normal;font-weight:normal;font-stretch:normal;font-size:933.33337402px;font-family:'Century Schoolbook';-inkscape-font-specification:'Century Schoolbook, Normal';font-variant-ligatures:normal;font-variant-caps:normal;font-variant-numeric:normal;font-feature-settings:normal;text-align:start;writing-mode:lr-tb;text-anchor:start;fill:#83274e;fill-opacity:1"><rect
           id="rect1601"
           width="4612.3564"
           height="1084.9038"
           x="828.32507"
           y="118.91891"
           style="font-style:normal;font-variant:normal;font-weight:normal;font-stretch:normal;font-size:933.33337402px;font-family:'Century Schoolbook';-inkscape-font-specification:'Century Schoolbook, Normal';font-variant-ligatures:normal;font-variant-caps:normal;font-variant-numeric:normal;font-feature-settings:normal;text-align:start;writing-mode:lr-tb;text-anchor:start;fill:#83274e;fill-opacity:1" /></flowRegion><flowPara
         id="flowPara1603"
         style="font-size:933.33337402px;fill:#83274e;fill-opacity:1">CL-KIITA</flowPara></flowRoot>    <path
       id="path818"
       d="m 140.72856,149.94999 c 6.9002,4.9315 9.20687,14.75485 5.15027,21.93339 -4.05658,7.17856 -12.94524,9.008 -19.86531,4.05657 -6.90015,-4.93157 -9.20684,-14.75478 -5.15027,-21.93341 4.0765,-7.1785 12.96516,-8.98811 19.86531,-4.05655 z"
       style="fill:#941f57;fill-opacity:1;fill-rule:nonzero;stroke:none;stroke-width:0.24856691"
       inkscape:connector-curvature="0"
       inkscape:export-xdpi="25.4"
       inkscape:export-ydpi="25.4" />
    <path
       id="path820"
       d="m 175.74646,154.76222 c 2.58506,8.01371 -1.37212,17.06153 -8.84895,20.2034 -7.47684,3.14177 -15.62977,-0.79546 -18.23472,-8.82911 -2.58509,-8.01373 1.37206,-17.06151 8.84891,-20.20335 7.47684,-3.14184 15.64963,0.79539 18.23476,8.82906 z"
       style="fill:#941f57;fill-opacity:1;fill-rule:nonzero;stroke:none;stroke-width:0.24856691"
       inkscape:connector-curvature="0"
       inkscape:export-xdpi="25.4"
       inkscape:export-ydpi="25.4" />
    <path
       id="path822"
       d="m 160.63369,185.92229 c 1.21296,8.39164 -4.27537,16.86266 -12.26924,18.91089 -7.99383,2.04818 -15.45075,-3.10209 -16.68365,-11.5136 -1.21299,-8.39148 4.27534,-16.86263 12.2692,-18.91077 7.97397,-2.04819 15.4508,3.10208 16.68369,11.51348 z"
       style="fill:#941f57;fill-opacity:1;fill-rule:nonzero;stroke:none;stroke-width:0.24856691"
       inkscape:connector-curvature="0"
       inkscape:export-xdpi="25.4"
       inkscape:export-ydpi="25.4" />
    <path
       id="path824"
       d="m 187.25999,180.99083 c 3.49979,7.73527 0.57663,17.37961 -6.54225,21.57542 -7.09903,4.17594 -15.70931,1.29251 -19.20911,-6.4428 -3.49979,-7.73536 -0.57669,-17.3995 6.54221,-21.5755 7.09908,-4.17581 15.70935,-1.29249 19.20915,6.44288 z"
       style="fill:#941f57;fill-opacity:1;fill-rule:nonzero;stroke:none;stroke-width:0.24856691"
       inkscape:connector-curvature="0"
       inkscape:export-xdpi="25.4"
       inkscape:export-ydpi="25.4" />
    <path
       id="path826"
       d="m 210.44612,181.40845 c 3.57939,7.73528 0.57667,17.37963 -6.72125,21.55551 -7.27793,4.17589 -16.10694,1.31245 -19.70617,-6.42294 -3.5794,-7.7353 -0.57666,-17.37963 6.70128,-21.55557 7.29788,-4.17588 16.12688,-1.31237 19.72614,6.423 z"
       style="fill:#941f57;fill-opacity:1;fill-rule:nonzero;stroke:none;stroke-width:0.24856691"
       inkscape:connector-curvature="0"
       inkscape:export-xdpi="25.4"
       inkscape:export-ydpi="25.4" />
    <path
       id="path828"
       d="m 203.28742,152.75382 c 3.57932,7.57626 0.59658,17.04162 -6.68151,21.13797 -7.25801,4.09633 -16.04726,1.27265 -19.62659,-6.30363 -3.57939,-7.57629 -0.5966,-17.04161 6.68143,-21.13797 7.25807,-4.09637 16.04737,-1.27263 19.62667,6.30363 z"
       style="fill:#941f57;fill-opacity:1;fill-rule:nonzero;stroke:none;stroke-width:0.24856691"
       inkscape:connector-curvature="0"
       inkscape:export-xdpi="25.4"
       inkscape:export-ydpi="25.4" />
    <path
       id="path830"
       d="m 233.35384,171.02834 c -2.46576,8.13305 -11.03623,13.46227 -19.12955,11.93106 -8.09333,-1.53112 -12.68676,-9.36591 -10.22098,-17.49897 2.46574,-8.11319 11.01641,-13.46222 19.1296,-11.91121 8.09327,1.53113 12.66685,9.36595 10.22093,17.47912 z"
       style="fill:#941f57;fill-opacity:1;fill-rule:nonzero;stroke:none;stroke-width:0.24856691"
       inkscape:connector-curvature="0"
       inkscape:export-xdpi="25.4"
       inkscape:export-ydpi="25.4" />
    <path
       id="path832"
       d="m 171.84895,206.52342 c 3.44013,7.39722 0.55677,16.64386 -6.42292,20.64083 -6.99963,3.99694 -15.45081,1.25275 -18.91088,-6.16443 -3.44013,-7.39727 -0.55678,-16.64395 6.44286,-20.64086 6.97969,-4.01678 15.4508,-1.25276 18.89094,6.16446 z"
       style="fill:#941f57;fill-opacity:1;fill-rule:nonzero;stroke:none;stroke-width:0.24856691"
       inkscape:connector-curvature="0"
       inkscape:export-xdpi="25.4"
       inkscape:export-ydpi="25.4" />
    <path
       id="path834"
       d="m 205.61403,211.21629 c 2.40611,8.21258 -1.98856,17.30016 -9.76366,20.32269 -7.79501,3.00267 -16.04738,-1.19306 -18.45346,-9.38579 -2.38621,-8.2126 1.98855,-17.30013 9.78352,-20.32272 7.79496,-3.00259 16.04731,1.19316 18.4336,9.38582 z"
       style="fill:#941f57;fill-opacity:1;fill-rule:nonzero;stroke:none;stroke-width:0.24856691"
       inkscape:connector-curvature="0"
       inkscape:export-xdpi="25.4"
       inkscape:export-ydpi="25.4" />
    <path
       id="path836"
       d="m 175.70667,224.06211 c 7.87452,3.18169 12.42823,12.18969 10.16134,20.12381 -2.2669,7.93426 -10.47951,11.79193 -18.35408,8.61037 -7.87453,-3.18165 -12.40835,-12.18969 -10.14143,-20.12389 2.2669,-7.93414 10.47948,-11.79186 18.33417,-8.61029 z"
       style="fill:#941f57;fill-opacity:1;fill-rule:nonzero;stroke:none;stroke-width:0.24856691"
       inkscape:connector-curvature="0"
       inkscape:export-xdpi="25.4"
       inkscape:export-ydpi="25.4" />
    <path
       id="path838"
       d="m 49.245908,280.27153 c -4.772447,-0.0995 -7.675685,-0.0794 -8.570529,-3.10207 -0.636316,-3.87761 -0.298277,-6.74106 7.496713,-7.89444 15.947864,-2.14759 28.495359,-1.09363 27.859028,-22.35092 l -0.119346,-58.56196 28.614766,-0.19881 -0.11941,58.56196 c -0.6363,21.25722 11.93114,20.22318 27.87908,22.35091 7.77512,1.15337 8.11315,4.01678 7.49671,7.9143 -0.91466,3.00264 -3.79808,3.00264 -8.57052,3.10212 l -81.966611,0.17903 M 131.21238,96.253703 c 4.77246,0.08 7.65583,0.08 8.57051,3.102117 0.61646,3.87763 0.2784,6.74114 -7.49671,7.89448 -15.94793,2.14758 -28.51543,1.09374 -27.8791,22.35108 l 0.11942,58.56195 -28.614792,0.19881 0.119339,-58.56193 c 0.636309,-21.25737 -11.911187,-20.22333 -27.859024,-22.35105 -7.795014,-1.15337 -8.133053,-4.01688 -7.496735,-7.914322 0.894843,-3.002718 3.798081,-3.002718 8.57053,-3.10216 z"
       style="fill:#640125;fill-opacity:1;fill-rule:nonzero;stroke:none;stroke-width:0.24856691"
       inkscape:connector-curvature="0"
       inkscape:export-xdpi="25.4"
       inkscape:export-ydpi="25.4" />
    <path
       id="path840"
       d="m 233.42022,232.02606 c 6.9002,4.95138 9.20684,14.77477 5.13041,21.95325 -4.05664,7.1786 -12.94533,8.98811 -19.84546,4.0566 -6.9002,-4.95145 -9.20687,-14.77473 -5.15034,-21.95326 4.05661,-7.17854 12.94534,-8.98814 19.86539,-4.05659 z"
       style="fill:#941f57;fill-opacity:1;fill-rule:nonzero;stroke:none;stroke-width:0.24856691"
       inkscape:connector-curvature="0"
       inkscape:export-xdpi="25.4"
       inkscape:export-ydpi="25.4" />
    <path
       id="path844"
       d="m 225.34332,270.81655 c 3.4401,7.39735 0.55676,16.64395 -6.44282,20.66072 -6.97969,3.99699 -15.4508,1.2329 -18.89101,-6.16438 -3.44009,-7.41718 -0.55675,-16.66379 6.42299,-20.66071 6.99961,-3.99694 15.47066,-1.23286 18.91084,6.16437 z"
       style="fill:#941f57;fill-opacity:1;fill-rule:nonzero;stroke:none;stroke-width:0.24856691"
       inkscape:connector-curvature="0"
       inkscape:export-xdpi="25.4"
       inkscape:export-ydpi="25.4" />
    <path
       id="path846"
       d="m 40.675379,277.16946 c -2.465756,8.13308 -11.03629,13.46233 -19.129566,11.93118 -8.113175,-1.53118 -12.6867353,-9.36593 -10.220976,-17.49901 2.465716,-8.13303 11.016392,-13.46231 19.129546,-11.93111 8.093258,1.55106 12.666877,9.38578 10.220996,17.49894 z"
       style="fill:#941f57;fill-opacity:1;fill-rule:nonzero;stroke:none;stroke-width:0.24856691"
       inkscape:connector-curvature="0"
       inkscape:export-xdpi="25.4"
       inkscape:export-ydpi="25.4" />
    <path
       id="path848"
       d="m 187.79685,134.85714 c -16.34565,15.25191 -37.46372,11.79191 -44.84111,-0.6364 -7.53648,-15.5303 1.0738,-28.1375 11.73228,-30.18566 11.97086,-1.84932 20.22324,5.15025 19.42783,11.91121 0.179,9.48525 -5.40878,16.06727 -13.30321,15.96779 -6.04506,0.0994 -8.61029,-6.02518 -7.73535,-9.94253 1.15338,-3.04247 1.41188,-3.77819 3.51969,-4.79233 0.99427,0.91468 -1.15334,-0.65625 -2.26691,4.71275 -0.15904,7.87454 5.70706,7.05922 7.49671,6.58205 8.96822,-3.06235 9.22673,-11.37436 7.07913,-14.7151 -3.53953,-5.98543 -13.91964,-6.52232 -18.35407,-0.0596 -5.70703,7.87458 -5.54791,12.36863 -0.75562,20.5216 6.60192,8.11309 13.50208,8.39153 19.30853,7.31773 5.56789,-0.81533 12.07036,-4.05655 17.99615,-7.19845 1.59081,-0.91474 1.37205,-0.23862 0.69595,0.51701 z"
       style="fill:#941f57;fill-opacity:1;fill-rule:nonzero;stroke:none;stroke-width:0.24856691"
       inkscape:connector-curvature="0"
       inkscape:export-xdpi="25.4"
       inkscape:export-ydpi="25.4" />
    <path
       id="path850"
       d="m 70.567691,239.78764 c -2.46577,8.13308 -11.016411,13.46227 -19.129567,11.93115 -8.093274,-1.55108 -12.666875,-9.38582 -10.220995,-17.499 2.465755,-8.13302 11.036291,-13.46228 19.129567,-11.93112 8.113176,1.55107 12.686754,9.36594 10.220995,17.49897 z"
       style="fill:#941f57;fill-opacity:1;fill-rule:nonzero;stroke:none;stroke-width:0.24856691"
       inkscape:connector-curvature="0"
       inkscape:export-xdpi="25.4"
       inkscape:export-ydpi="25.4" />
    <path
       id="path852"
       d="m 193.78228,131.13863 9.22676,-10.3006 c 0,0 16.06725,1.59085 19.88525,-1.23287 0.35784,-0.0998 -18.19502,-1.07377 -18.19502,-1.07377 l 13.40264,-11.71238 4.79238,-1.15335 -3.818,-1.07379 -2.04815,-6.840516 -1.41185,6.939886 -13.86004,12.32884 -5.66724,-13.40261 c 0.4375,6.0451 0.6164,8.96821 4.07642,15.88824 l -7.69552,10.49944 c -14.83443,-3.34079 -14.71509,-12.82593 -13.36294,-22.11235 2.24708,-0.0797 4.63335,0.41758 6.46276,1.4516 -1.03403,-14.516189 7.31772,-21.43626 15.13268,-25.532604 1.86918,1.610688 3.53954,4.633253 4.35481,8.888714 11.97092,-6.562144 22.37088,-3.738448 28.3165,-2.306701 0.35792,4.53382 0.51703,15.709301 -6.30357,24.677511 6.74106,-0.55676 8.05352,0.21875 9.76358,0.9744 -0.6164,5.5082 -7.39727,21.67488 -17.06139,23.80263 -1.19319,-1.59087 -3.85781,-1.45169 -3.51972,1.8692 -2.00847,-0.53692 -7.27805,3.53953 -8.9086,3.97702 -8.7296,-3.69858 -11.1357,-7.31777 -13.56174,-14.55594 z"
       style="fill:#941f57;fill-opacity:1;fill-rule:nonzero;stroke:#000000;stroke-width:0.23862243px;stroke-linecap:butt;stroke-linejoin:miter;stroke-miterlimit:4;stroke-dasharray:none;stroke-opacity:1"
       inkscape:connector-curvature="0"
       inkscape:export-xdpi="25.4"
       inkscape:export-ydpi="25.4" />
  </g>
</svg>
